<?xml version="1.0" encoding="UTF-8"?>
<svg version="1.1" xmlns="http://www.w3.org/2000/svg" width="500" height="500">
<path d="M0 0 C-0.4125 0.54785156 -0.825 1.09570312 -1.25 1.66015625 C-6.63549256 9.05318733 -10.83414848 16.88470482 -15 25 C-14.39671875 24.84402344 -13.7934375 24.68804687 -13.171875 24.52734375 C-12.37265625 24.33269531 -11.5734375 24.13804688 -10.75 23.9375 C-9.96109375 23.74027344 -9.1721875 23.54304688 -8.359375 23.33984375 C-5.87174253 22.98152583 -4.38665107 23.32847917 -2 24 C-3.5793912 26.56500365 -5.1633368 29.12699998 -6.75 31.6875 C-7.1934375 32.40873047 -7.636875 33.12996094 -8.09375 33.87304688 C-12.329158 40.69329947 -16.32323326 45.50602239 -23 50 C-21.88625 49.7525 -21.88625 49.7525 -20.75 49.5 C-15.49590599 48.79945413 -10.29248251 48.92292501 -5 49 C-5 52 -5 52 -6.6875 54.05078125 C-11.53315405 58.79002736 -16.42974682 63.1296606 -22 67 C-21.01257813 67.13277344 -20.02515625 67.26554687 -19.0078125 67.40234375 C-17.08582031 67.66724609 -17.08582031 67.66724609 -15.125 67.9375 C-13.21074219 68.19853516 -13.21074219 68.19853516 -11.2578125 68.46484375 C-8 69 -8 69 -6 70 C-6 70.66 -6 71.32 -6 72 C-8.43299445 73.58647813 -10.85661475 75.06157923 -13.375 76.5 C-14.75934022 77.29944371 -16.1422191 78.10142466 -17.5234375 78.90625 C-18.14138184 79.26009766 -18.75932617 79.61394531 -19.39599609 79.97851562 C-21.17350992 81.02910749 -21.17350992 81.02910749 -23 83 C-19.37 84.32 -15.74 85.64 -12 87 C-12 87.66 -12 88.32 -12 89 C-14.4965744 90.13315391 -16.99683772 91.25656579 -19.5 92.375 C-20.19609375 92.69210938 -20.8921875 93.00921875 -21.609375 93.3359375 C-26.34822654 95.44209374 -30.93690078 96.87106571 -36 98 C-35.44570313 98.25394531 -34.89140625 98.50789063 -34.3203125 98.76953125 C-33.23363281 99.28580078 -33.23363281 99.28580078 -32.125 99.8125 C-31.40570313 100.14894531 -30.68640625 100.48539062 -29.9453125 100.83203125 C-28 102 -28 102 -26 105 C-31.61 106.65 -37.22 108.3 -43 110 C-41.68 110.99 -40.36 111.98 -39 113 C-39 113.66 -39 114.32 -39 115 C-48.405 115.99 -48.405 115.99 -58 117 C-57.01 117.99 -56.02 118.98 -55 120 C-55 120.66 -55 121.32 -55 122 C-57.97 122.495 -57.97 122.495 -61 123 C-59.85545972 124.58426829 -58.70925971 126.16733748 -57.5625 127.75 C-56.83546875 128.75417969 -56.1084375 129.75835937 -55.359375 130.79296875 C-53.81121155 132.89734325 -52.23886523 134.98418254 -50.640625 137.05078125 C-41.24751677 149.201933 -36.80355944 158.48045672 -38 174 C-39.67978667 180.92153062 -43.73416589 185.39979099 -49 190 C-49.99 189.67 -50.98 189.34 -52 189 C-52 188.01 -52 187.02 -52 186 C-52.680625 186.763125 -53.36125 187.52625 -54.0625 188.3125 C-60.11775358 193.85241285 -65.56327476 194.43495752 -73.4375 194.1875 C-74.26443359 194.17396484 -75.09136719 194.16042969 -75.94335938 194.14648438 C-77.9625264 194.11146992 -79.98135318 194.05767562 -82 194 C-82 193.01 -82 192.02 -82 191 C-79.01353231 189.00902154 -76.40312738 188.05875074 -73 187 C-73.68449219 187.16371094 -74.36898437 187.32742188 -75.07421875 187.49609375 C-78.3743278 188.06447034 -81.46554069 188.09630767 -84.8125 188.0625 C-85.97394531 188.05347656 -87.13539063 188.04445313 -88.33203125 188.03515625 C-89.65267578 188.01775391 -89.65267578 188.01775391 -91 188 C-88.91522063 186.39187919 -86.82904929 184.89270411 -84.59765625 183.4921875 C-77.83023686 179.17522043 -73.71064174 174.74996354 -71.39453125 166.96484375 C-70.13244266 160.67939266 -70.74696043 154.56236459 -74 149 C-77.702692 144.52730876 -80.62144478 143.16233742 -86.25 141.9375 C-86.94311279 141.77813965 -87.63622559 141.6187793 -88.3503418 141.45458984 C-91.30204754 140.77997099 -94.26277409 140.15339342 -97.22705078 139.53662109 C-111.81896233 136.48953394 -125.03501064 131.93256265 -134.0078125 119.13671875 C-138.41620716 111.87854595 -141.1804253 105.03216705 -142.88671875 96.7578125 C-146.01296661 81.15862403 -146.01296661 81.15862403 -156.06640625 69.21875 C-165.11729408 63.51394797 -175.81805165 64.14873666 -186 66 C-182.90367037 59.97935905 -178.34543938 56.15268086 -172.12890625 53.59375 C-169.37821212 52.82658393 -166.65034952 52.61593956 -163.8125 52.3125 C-159.65761817 51.82802173 -159.65761817 51.82802173 -156.5859375 49.30859375 C-155.98214053 47.92511112 -155.42373787 46.52100919 -154.91015625 45.1015625 C-152.87448536 40.40117219 -148.51248917 37.6932242 -144 35.625 C-132.86510751 33.30523073 -123.43204849 38.66698375 -113.75 43.6875 C-108.46516234 46.4067677 -103.86117445 48.09050741 -98 49 C-99.17744585 52.53233755 -99.95605641 52.86308075 -103.0625 54.6875 C-103.79597656 55.12449219 -104.52945313 55.56148437 -105.28515625 56.01171875 C-105.85105469 56.33785156 -106.41695313 56.66398437 -107 57 C-106.59160889 57.40839111 -106.18321777 57.81678223 -105.76245117 58.23754883 C-100.50830078 63.49169922 -95.25415039 68.74584961 -90 74 C-86.08111596 69.69431702 -82.22470906 65.37756233 -78.6875 60.75 C-65.79750167 44.03328342 -24.79149544 -7.69391238 0 0 Z M-50 182 C-49 184 -49 184 -49 184 Z " fill="#CA8785" transform="translate(326,85)"/>
<path d="M0 0 C5.28483766 2.7192677 9.88882555 4.40300741 15.75 5.3125 C14.53434602 8.95946193 12.90438464 9.80407462 9.59765625 11.58984375 C6.9997474 12.60593918 5.32790052 12.27000591 2.75 11.3125 C2.09 10.9825 1.43 10.6525 0.75 10.3125 C0.79125 11.55 0.8325 12.7875 0.875 14.0625 C0.7962946 24.1840147 -1.4678716 32.34557282 -5.70776367 41.42626953 C-7.96175713 46.34591216 -9.26943278 50.97574875 -9.9609375 56.37109375 C-10.25 58.3125 -10.25 58.3125 -11.25 59.3125 C-13.24958364 59.35330783 -15.25045254 59.35504356 -17.25 59.3125 C-15.32669752 68.25127722 -11.63525997 74.76543557 -3.875 79.875 C1.01102003 82.10202681 6.3060138 81.24047199 11.49560547 80.60961914 C16.83477709 80.03219671 19.96644333 80.84214813 24.75 83.3125 C24.42 81.6625 24.09 80.0125 23.75 78.3125 C29.17735668 78.87784965 33.7010178 80.29290712 38.75 82.3125 C40.235 82.8075 40.235 82.8075 41.75 83.3125 C40.5125 81.889375 40.5125 81.889375 39.25 80.4375 C36.75 77.5625 36.75 77.5625 36.75 75.3125 C37.47703125 75.47105469 38.2040625 75.62960938 38.953125 75.79296875 C41.66348691 76.36166039 41.66348691 76.36166039 44.109375 76.42578125 C48.46719877 76.78893323 50.96855565 77.51534822 54.08203125 80.69140625 C56.01769424 83.29149996 57.85054449 85.92937701 59.62353516 88.64257812 C61.44624249 91.34464101 63.49029931 93.87305548 65.5 96.4375 C73.79105949 107.48258275 76.81565802 116.4893931 75.75 130.3125 C74.07021333 137.23403062 70.01583411 141.71229099 64.75 146.3125 C63.76 145.9825 62.77 145.6525 61.75 145.3125 C61.75 144.3225 61.75 143.3325 61.75 142.3125 C61.069375 143.075625 60.38875 143.83875 59.6875 144.625 C53.63224642 150.16491285 48.18672524 150.74745752 40.3125 150.5 C39.48556641 150.48646484 38.65863281 150.47292969 37.80664062 150.45898438 C35.7874736 150.42396992 33.76864682 150.37017562 31.75 150.3125 C31.75 149.3225 31.75 148.3325 31.75 147.3125 C34.73646769 145.32152154 37.34687262 144.37125074 40.75 143.3125 C40.06550781 143.47621094 39.38101563 143.63992188 38.67578125 143.80859375 C35.3756722 144.37697034 32.28445931 144.40880767 28.9375 144.375 C27.77605469 144.36597656 26.61460937 144.35695313 25.41796875 144.34765625 C24.09732422 144.33025391 24.09732422 144.33025391 22.75 144.3125 C24.83477937 142.70437919 26.92095071 141.20520411 29.15234375 139.8046875 C35.91976314 135.48772043 40.03935826 131.06246354 42.35546875 123.27734375 C43.61755734 116.99189266 43.00303957 110.87486459 39.75 105.3125 C36.047308 100.83980876 33.12855522 99.47483742 27.5 98.25 C26.80688721 98.09063965 26.11377441 97.9312793 25.3996582 97.76708984 C22.44795246 97.09247099 19.48722591 96.46589342 16.52294922 95.84912109 C1.93103767 92.80203394 -11.28501064 88.24506265 -20.2578125 75.44921875 C-24.66620716 68.19104595 -27.4304253 61.34466705 -29.13671875 53.0703125 C-32.26296661 37.47112403 -32.26296661 37.47112403 -42.31640625 25.53125 C-51.36729408 19.82644797 -62.06805165 20.46123666 -72.25 22.3125 C-69.15367037 16.29185905 -64.59543938 12.46518086 -58.37890625 9.90625 C-55.62821212 9.13908393 -52.90034952 8.92843956 -50.0625 8.625 C-45.90761817 8.14052173 -45.90761817 8.14052173 -42.8359375 5.62109375 C-42.23214053 4.23761112 -41.67373787 2.83350919 -41.16015625 1.4140625 C-39.12448536 -3.28632781 -34.76248917 -5.9942758 -30.25 -8.0625 C-19.11510751 -10.38226927 -9.68204849 -5.02051625 0 0 Z M63.75 138.3125 C64.75 140.3125 64.75 140.3125 64.75 140.3125 Z " fill="#D16169" transform="translate(212.25,128.6875)"/>
<path d="M0 0 C8.682515 1.08531437 13.92456354 3.16941506 19.5546875 9.96484375 C22.8187681 14.5610221 23.7550487 18.36617507 23 24 C21.25851826 30.9438829 18.24032624 35.13506447 13.03515625 39.921875 C6.17852623 46.92327072 3.81414609 54.07115036 3.8984375 63.58203125 C4.00588445 66.14009523 4.33984088 68.52440328 5 71 C4.34 71 3.68 71 3 71 C-0.17289692 63.63991944 -2.4265955 56.58368424 -4 48.75 C-5.89177204 39.6113443 -8.4281617 32.13222965 -16.06640625 26.21875 C-25.11729408 20.51394797 -35.81805165 21.14873666 -46 23 C-42.39839616 15.99688142 -37.24069278 12.63297919 -30 10 C-23.02290602 8.08129915 -17.77241056 8.69932782 -11.50390625 12.125 C-11.00761719 12.41375 -10.51132813 12.7025 -10 13 C-10.1546875 11.6696875 -10.1546875 11.6696875 -10.3125 10.3125 C-10 7 -10 7 -7.8125 4.1875 C-5.01512296 2.0117623 -3.47691229 1.29802105 0 1 C0 0.67 0 0.34 0 0 Z " fill="#AFA19C" transform="translate(186,128)"/>
<path d="M0 0 C-0.4125 0.54785156 -0.825 1.09570312 -1.25 1.66015625 C-6.63549256 9.05318733 -10.83414848 16.88470482 -15 25 C-14.39671875 24.84402344 -13.7934375 24.68804687 -13.171875 24.52734375 C-12.37265625 24.33269531 -11.5734375 24.13804688 -10.75 23.9375 C-9.96109375 23.74027344 -9.1721875 23.54304688 -8.359375 23.33984375 C-5.87174253 22.98152583 -4.38665107 23.32847917 -2 24 C-3.5793912 26.56500365 -5.1633368 29.12699998 -6.75 31.6875 C-7.41515625 32.7693457 -7.41515625 32.7693457 -8.09375 33.87304688 C-12.329158 40.69329947 -16.32323326 45.50602239 -23 50 C-21.88625 49.7525 -21.88625 49.7525 -20.75 49.5 C-15.49590599 48.79945413 -10.29248251 48.92292501 -5 49 C-5 52 -5 52 -6.6875 54.05078125 C-11.53315405 58.79002736 -16.42974682 63.1296606 -22 67 C-21.01257813 67.13277344 -20.02515625 67.26554687 -19.0078125 67.40234375 C-17.72648437 67.57894531 -16.44515625 67.75554687 -15.125 67.9375 C-13.84882813 68.11152344 -12.57265625 68.28554687 -11.2578125 68.46484375 C-8 69 -8 69 -6 70 C-6 70.66 -6 71.32 -6 72 C-8.43299445 73.58647813 -10.85661475 75.06157923 -13.375 76.5 C-14.75934022 77.29944371 -16.1422191 78.10142466 -17.5234375 78.90625 C-18.14138184 79.26009766 -18.75932617 79.61394531 -19.39599609 79.97851562 C-21.17350992 81.02910749 -21.17350992 81.02910749 -23 83 C-21.02 83.66 -19.04 84.32 -17 85 C-17 85.66 -17 86.32 -17 87 C-20.12290635 86.51421457 -22.99580359 86.0013988 -26 85 C-27.33169109 84.93064109 -28.66668637 84.9154415 -30 84.9375 C-30.79631836 84.94587891 -31.59263672 84.95425781 -32.41308594 84.96289062 C-33.26676758 84.97513672 -34.12044922 84.98738281 -35 85 C-45.03242959 85.08111483 -54.99016849 84.63410697 -65 84 C-65 83.67 -65 83.34 -65 83 C-40.01734161 80.61223194 -40.01734161 80.61223194 -30 81 C-30 79.35 -30 77.7 -30 76 C-28.02 75.505 -28.02 75.505 -26 75 C-26 74.34 -26 73.68 -26 73 C-27.98 73.495 -27.98 73.495 -30 74 C-30 73.34 -30 72.68 -30 72 C-30.76183594 72.144375 -31.52367187 72.28875 -32.30859375 72.4375 C-38.62765943 73.57351181 -44.58042909 74.50948975 -51 74 C-52.74609375 72.48046875 -52.74609375 72.48046875 -54 71 C-51.64561267 69.57055055 -50.51967567 68.91338739 -47.75 69.375 C-47.1725 69.58125 -46.595 69.7875 -46 70 C-45.505 68.515 -45.505 68.515 -45 67 C-44.01 67.495 -44.01 67.495 -43 68 C-43 68.66 -43 69.32 -43 70 C-41.88625 69.71125 -40.7725 69.4225 -39.625 69.125 C-35.47777463 68.0807879 -31.30435114 67.25205339 -27.1015625 66.46484375 C-24.95697174 66.07994019 -24.95697174 66.07994019 -23 65 C-22.896875 64.360625 -22.79375 63.72125 -22.6875 63.0625 C-22 61 -22 61 -19.625 59.75 C-17 59 -17 59 -14 59 C-14.495 55.535 -14.495 55.535 -15 52 C-15.61875 52.28875 -16.2375 52.5775 -16.875 52.875 C-19.58319782 53.84995121 -21.99677327 54.42121112 -24.8125 54.9375 C-28.80860384 55.68454612 -32.34622633 56.81999046 -36.10546875 58.3359375 C-39.04002629 59.3645453 -41.91409503 59.67855157 -45 60 C-41.888472 56.6217696 -39.48637374 54.20366125 -35 53 C-31.6875 52.875 -31.6875 52.875 -29 53 C-29.495 50.03 -29.495 50.03 -30 47 C-28.35 47.66 -26.7 48.32 -25 49 C-25.495 47.02 -25.495 47.02 -26 45 C-24.02 45 -22.04 45 -20 45 C-20 44.34 -20 43.68 -20 43 C-19.38125 42.773125 -18.7625 42.54625 -18.125 42.3125 C-15.38589791 40.62070165 -14.94975528 39.00755839 -14 36 C-13.34 36 -12.68 36 -12 36 C-13.94141236 29.37456135 -13.94141236 29.37456135 -19 25 C-20.485 24.505 -20.485 24.505 -22 24 C-23 22.1875 -23 22.1875 -24 20 C-24.97581759 18.64886795 -25.97029741 17.31053056 -27 16 C-27.391875 16.45375 -27.78375 16.9075 -28.1875 17.375 C-30 19 -30 19 -32.28515625 19.8203125 C-35.54503968 21.23683738 -37.64190849 23.09493358 -40.25 25.5 C-41.12140625 26.2940625 -41.9928125 27.088125 -42.890625 27.90625 C-45.04297528 29.81949035 -45.04297528 29.81949035 -46 32 C-46.66 32 -47.32 32 -48 32 C-48 32.66 -48 33.32 -48 34 C-48.804375 34.598125 -49.60875 35.19625 -50.4375 35.8125 C-53.23365948 37.7375421 -53.23365948 37.7375421 -53.5 40.625 C-53.7475 41.800625 -53.7475 41.800625 -54 43 C-56.375 44.0625 -56.375 44.0625 -59 45 C-60.63676257 46.9600281 -60.63676257 46.9600281 -62 49 C-62.99 49.66 -63.98 50.32 -65 51 C-67.69838448 53.56675597 -69.93032576 55.89548863 -72 59 C-72.66 59 -73.32 59 -74 59 C-74.33 59.99 -74.66 60.98 -75 62 C-76.6222454 63.70993434 -78.29413425 65.37347684 -80 67 C-80.763125 67.763125 -81.52625 68.52625 -82.3125 69.3125 C-82.869375 69.869375 -83.42625 70.42625 -84 71 C-84.66 70.67 -85.32 70.34 -86 70 C-27.12199201 -8.41716993 -27.12199201 -8.41716993 0 0 Z " fill="#DF706C" transform="translate(326,85)"/>
<path d="M0 0 C-0.825 0.7425 -1.65 1.485 -2.5 2.25 C-5.44844853 4.87387385 -5.44844853 4.87387385 -5 9 C-4.01 9.33 -3.02 9.66 -2 10 C-1.67 11.32 -1.34 12.64 -1 14 C3.29 14.66 7.58 15.32 12 16 C12.33 15.34 12.66 14.68 13 14 C16.0625 13.375 16.0625 13.375 19 13 C19.495 15.97 19.495 15.97 20 19 C22.97 18.67 25.94 18.34 29 18 C28.34 15.69 27.68 13.38 27 11 C28.093125 11.37125 29.18625 11.7425 30.3125 12.125 C31.529375 12.41375 32.74625 12.7025 34 13 C34.99 12.34 35.98 11.68 37 11 C34.61426621 9.10786631 32.92824652 7.97608217 30 7 C28.8125 4.9375 28.8125 4.9375 28 3 C28.7425 3.185625 29.485 3.37125 30.25 3.5625 C32.94990963 3.99203108 34.44631077 3.85122974 37 3 C37.99 4.32 38.98 5.64 40 7 C40.99 6.67 41.98 6.34 43 6 C43.33 5.01 43.66 4.02 44 3 C43.34 2.67 42.68 2.34 42 2 C48.35244568 1.61500329 54.067749 3.97435332 60 6 C60 6.66 60 7.32 60 8 C61.98 8 63.96 8 66 8 C66 8.66 66 9.32 66 10 C70.455 10.99 70.455 10.99 75 12 C75 12.66 75 13.32 75 14 C68.73 14.66 62.46 15.32 56 16 C56.99 16.99 57.98 17.98 59 19 C59 19.66 59 20.32 59 21 C43.07061503 21.55353075 43.07061503 21.55353075 37 18 C37.78130071 20.49552484 37.78130071 20.49552484 39 23 C39.99 23.33 40.98 23.66 42 24 C42 24.66 42 25.32 42 26 C35.68878497 24.9007105 29.93661416 23.41862058 24 21 C24.495 23.475 24.495 23.475 25 26 C24.29875 25.855625 23.5975 25.71125 22.875 25.5625 C21.92625 25.376875 20.9775 25.19125 20 25 C19.08089844 24.80792969 18.16179687 24.61585938 17.21484375 24.41796875 C13.81345579 23.97574699 11.07372518 24.27038813 7.6875 24.75 C1.05303127 25.31608095 -2.87844013 24.24300769 -8 20 C-12.7831403 15.43719629 -16.82059926 11.03651654 -17.125 4.1875 C-17.08375 3.465625 -17.0425 2.74375 -17 2 C-11.19233704 0.4943096 -6.0018137 -0.21824777 0 0 Z " fill="#BB9591" transform="translate(212,186)"/>
<path d="M0 0 C5.28483766 2.7192677 9.88882555 4.40300741 15.75 5.3125 C14.53434602 8.95946193 12.90438464 9.80407462 9.59765625 11.58984375 C6.9997474 12.60593918 5.32790052 12.27000591 2.75 11.3125 C2.09 10.9825 1.43 10.6525 0.75 10.3125 C0.79125 11.55 0.8325 12.7875 0.875 14.0625 C0.7962946 24.1840147 -1.4678716 32.34557282 -5.70776367 41.42626953 C-7.96175713 46.34591216 -9.26943278 50.97574875 -9.9609375 56.37109375 C-10.25 58.3125 -10.25 58.3125 -11.25 59.3125 C-13.24958364 59.35330783 -15.25045254 59.35504356 -17.25 59.3125 C-15.59724308 66.99388452 -12.85488609 71.81510488 -7.25 77.3125 C-9.23 77.8075 -9.23 77.8075 -11.25 78.3125 C-11.78109375 77.70921875 -12.3121875 77.1059375 -12.859375 76.484375 C-13.56578125 75.68515625 -14.2721875 74.8859375 -15 74.0625 C-15.69609375 73.27359375 -16.3921875 72.4846875 -17.109375 71.671875 C-19.19022941 69.29576987 -19.19022941 69.29576987 -21.48828125 67.3125 C-24.19029252 64.24502822 -23.74644568 61.82062188 -23.5625 57.89453125 C-22.48934547 49.02759196 -17.45573055 42.91831165 -11.56640625 36.46875 C-6.50150931 30.91125709 -3.51418765 25.01691296 -3.83203125 17.328125 C-4.8634003 12.35442007 -8.02352234 8.60906209 -11.4375 5 C-15.46310586 2.58463649 -19.72435326 1.47247159 -24.25 0.3125 C-24.25 0.6425 -24.25 0.9725 -24.25 1.3125 C-25.3225 1.395 -26.395 1.4775 -27.5 1.5625 C-31.60603475 2.38370695 -32.87427019 2.93165374 -35.25 6.3125 C-36.05315654 9.45731791 -36.05315654 9.45731791 -36.25 12.3125 C-39.6875 11.5 -39.6875 11.5 -43.25 10.3125 C-44.38013378 6.92209867 -44.24031591 6.54673454 -42.75 3.5 C-39.82775997 -1.97164254 -35.8661381 -5.4884367 -30.25 -8.0625 C-19.11510751 -10.38226927 -9.68204849 -5.02051625 0 0 Z " fill="#5F50A0" transform="translate(212.25,128.6875)"/>
<path d="M0 0 C10.9365573 3.39246788 20.4446859 9.98532415 25.89453125 20.26171875 C28.29634451 26.21108657 30.1992058 32.36490742 28.125 38.65234375 C25.24843416 43.56375303 21.38503286 46.87876216 16.2109375 49.203125 C9.29141838 50.92037792 2.07052987 50.3465946 -5 50 C-5 49.01 -5 48.02 -5 47 C-2.01353231 45.00902154 0.59687262 44.05875074 4 43 C2.97326172 43.24556641 2.97326172 43.24556641 1.92578125 43.49609375 C-1.3743278 44.06447034 -4.46554069 44.09630767 -7.8125 44.0625 C-8.97394531 44.05347656 -10.13539063 44.04445313 -11.33203125 44.03515625 C-12.21246094 44.02355469 -13.09289062 44.01195312 -14 44 C-11.91522063 42.39187919 -9.82904929 40.89270411 -7.59765625 39.4921875 C-0.83023686 35.17522043 3.28935826 30.74996354 5.60546875 22.96484375 C6.89278254 16.55376615 6.09212291 10.73887832 3 5 C2.20529297 4.20529297 2.20529297 4.20529297 1.39453125 3.39453125 C0.93433594 2.93433594 0.47414062 2.47414062 0 2 C0 1.34 0 0.68 0 0 Z " fill="#CD9071" transform="translate(249,229)"/>
<path d="M0 0 C4.09446251 0.49524163 5.76739276 1.33532929 8.3125 4.5625 C11.40872612 8.35130302 14.72526977 11.70629301 18.30078125 15.04296875 C20.20641965 17.23773849 21.0690673 19.26390845 22 22 C21.04578192 23.14926266 20.08647955 24.29430541 19.125 25.4375 C18.59132812 26.07558594 18.05765625 26.71367187 17.5078125 27.37109375 C16 29 16 29 14 30 C13.67 30.99 13.34 31.98 13 33 C16.61939504 31.27256146 19.87567603 29.52349243 23 27 C23 27.66 23 28.32 23 29 C24.32 29 25.64 29 27 29 C27.495 30.485 27.495 30.485 28 32 C27.01 32.495 27.01 32.495 26 33 C26 32.34 26 31.68 26 31 C25.01 31.61875 24.02 32.2375 23 32.875 C19.10253199 35.12261959 15.3881877 36.07617101 11 37 C11 37.66 11 38.32 11 39 C10.195625 39.268125 9.39125 39.53625 8.5625 39.8125 C7.2940625 40.4003125 7.2940625 40.4003125 6 41 C5.67 41.99 5.34 42.98 5 44 C0.43267059 47.95835216 -5.23965452 47.70744305 -11 48 C-11.93465531 39.96196435 -8.23360347 32.70949612 -4.84765625 25.5703125 C-1.11978642 17.43933603 -0.72936969 8.81001814 0 0 Z " fill="#90789D" transform="translate(213,139)"/>
<path d="M0 0 C0.515625 0.66 1.03125 1.32 1.5625 2 C2.366875 2.99 3.17125 3.98 4 5 C4.50917969 5.67417969 5.01835937 6.34835938 5.54296875 7.04296875 C9.73525565 12.30970904 12.37715363 13.91428748 19 15 C19.62036133 15.31396729 20.24072266 15.62793457 20.87988281 15.95141602 C23.45900623 17.22701886 25.92429851 17.78424367 28.734375 18.40234375 C29.8586792 18.65129395 30.9829834 18.90024414 32.14135742 19.15673828 C33.33220947 19.41438965 34.52306152 19.67204102 35.75 19.9375 C37.57204956 20.3394458 37.57204956 20.3394458 39.4309082 20.74951172 C45.99708032 22.18437269 52.56350196 23.49200144 59.1875 24.625 C64.74311469 25.64470143 69.31049388 26.8196438 74 30 C74.79277344 30.52851563 75.58554687 31.05703125 76.40234375 31.6015625 C80.96026162 34.87059049 84.00731907 37.185726 85 43 C83.02 42.34 81.04 41.68 79 41 C79 40.34 79 39.68 79 39 C78.15050781 39.24363281 77.30101562 39.48726562 76.42578125 39.73828125 C72.04879011 40.0726694 69.70856555 38.49509374 66.1875 36.1875 C58.13360695 31.26203971 51.46969787 29.93458399 42.1640625 29.34375 C40 29 40 29 37 27 C34.67451993 26.30643577 32.34119555 25.63850788 30 25 C29.34 24.67 28.68 24.34 28 24 C28 24.66 28 25.32 28 26 C28.66 26.66 29.32 27.32 30 28 C21.20124525 28.51530042 14.5396235 23.55792776 8.0625 18 C0.28307368 10.6388224 0.28307368 10.6388224 -0.23046875 5.8515625 C-0.24759119 3.89960448 -0.13430396 1.94740744 0 0 Z " fill="#AF4775" transform="translate(190,193)"/>
<path d="M0 0 C-0.4125 0.53625 -0.825 1.0725 -1.25 1.625 C-5.71563826 7.68550907 -9.13371703 13.94248027 -12.33398438 20.72851562 C-14.80332687 25.90166343 -14.80332687 25.90166343 -17 27 C-17.99 26.01 -17.99 26.01 -19 25 C-20.485 24.505 -20.485 24.505 -22 24 C-23 22.1875 -23 22.1875 -24 20 C-24.97581759 18.64886795 -25.97029741 17.31053056 -27 16 C-27.391875 16.45375 -27.78375 16.9075 -28.1875 17.375 C-30 19 -30 19 -32.28515625 19.8203125 C-35.54503968 21.23683738 -37.64190849 23.09493358 -40.25 25.5 C-41.12140625 26.2940625 -41.9928125 27.088125 -42.890625 27.90625 C-45.04297528 29.81949035 -45.04297528 29.81949035 -46 32 C-46.66 32 -47.32 32 -48 32 C-48 32.66 -48 33.32 -48 34 C-48.804375 34.598125 -49.60875 35.19625 -50.4375 35.8125 C-53.23365948 37.7375421 -53.23365948 37.7375421 -53.5 40.625 C-53.7475 41.800625 -53.7475 41.800625 -54 43 C-56.375 44.0625 -56.375 44.0625 -59 45 C-60.63676257 46.9600281 -60.63676257 46.9600281 -62 49 C-62.99 49.66 -63.98 50.32 -65 51 C-67.69838448 53.56675597 -69.93032576 55.89548863 -72 59 C-72.66 59 -73.32 59 -74 59 C-74.33 59.99 -74.66 60.98 -75 62 C-76.6222454 63.70993434 -78.29413425 65.37347684 -80 67 C-80.763125 67.763125 -81.52625 68.52625 -82.3125 69.3125 C-82.869375 69.869375 -83.42625 70.42625 -84 71 C-84.66 70.67 -85.32 70.34 -86 70 C-27.12199201 -8.41716993 -27.12199201 -8.41716993 0 0 Z " fill="#EC6464" transform="translate(326,85)"/>
<path d="M0 0 C-0.825 0.7425 -1.65 1.485 -2.5 2.25 C-5.44844853 4.87387385 -5.44844853 4.87387385 -5 9 C-4.01 9.33 -3.02 9.66 -2 10 C-1.67 11.32 -1.34 12.64 -1 14 C3.29 14.66 7.58 15.32 12 16 C12.33 15.34 12.66 14.68 13 14 C16.0625 13.375 16.0625 13.375 19 13 C19.495 15.97 19.495 15.97 20 19 C22.97 18.67 25.94 18.34 29 18 C28.505 16.515 28.505 16.515 28 15 C29.75 15.125 29.75 15.125 32 16 C36 21.33333333 36 21.33333333 36 23 C27.42857143 22 27.42857143 22 24 21 C24.495 23.475 24.495 23.475 25 26 C24.29875 25.855625 23.5975 25.71125 22.875 25.5625 C21.92625 25.376875 20.9775 25.19125 20 25 C19.08089844 24.80792969 18.16179687 24.61585938 17.21484375 24.41796875 C13.81345579 23.97574699 11.07372518 24.27038813 7.6875 24.75 C1.05303127 25.31608095 -2.87844013 24.24300769 -8 20 C-12.7831403 15.43719629 -16.82059926 11.03651654 -17.125 4.1875 C-17.08375 3.465625 -17.0425 2.74375 -17 2 C-11.19233704 0.4943096 -6.0018137 -0.21824777 0 0 Z " fill="#A3AFA7" transform="translate(212,186)"/>
<path d="M0 0 C1.4391134 0.28359887 2.87625518 0.57721399 4.3125 0.875 C5.11300781 1.03742188 5.91351563 1.19984375 6.73828125 1.3671875 C9 2 9 2 12 4 C14.23822757 4.40490549 16.49169059 4.72861518 18.75 5 C27.99431804 6.25715163 34.18126564 8.48202387 42.03515625 13.5390625 C45.30958247 15.15254788 47.39927767 15.28891383 51 15 C51 15.66 51 16.32 51 17 C52.65 17.33 54.3 17.66 56 18 C56.33 17.34 56.66 16.68 57 16 C57.98558449 17.57934639 58.96322541 19.16365173 59.9375 20.75 C60.75541016 22.07257813 60.75541016 22.07257813 61.58984375 23.421875 C65.05552379 29.75802133 64.58873018 36.95073078 64 44 C63.19404167 46.57173977 62.21239433 48.77860119 60.95703125 51.15625 C59.8022052 53.38105775 59.31974505 55.52197587 59 58 C58.01 57.67 57.02 57.34 56 57 C56.23976563 56.41734375 56.47953125 55.8346875 56.7265625 55.234375 C59.67319956 47.08628295 59.20998249 40.29172277 55.87109375 32.296875 C50.43736883 22.20346005 41.69229578 16.4440777 31 13 C30.04738281 12.67515625 29.09476563 12.3503125 28.11328125 12.015625 C23.18919199 10.40927217 18.27183974 9.02799367 13.203125 7.96484375 C12.38328125 7.79275391 11.5634375 7.62066406 10.71875 7.44335938 C9.09118745 7.10986357 7.46092857 6.78923093 5.828125 6.48242188 C3.8633423 6.08503093 1.92672361 5.55319684 0 5 C-0.33 4.01 -0.66 3.02 -1 2 C-0.67 1.34 -0.34 0.68 0 0 Z " fill="#B2466C" transform="translate(218,217)"/>
<path d="M0 0 C0.144375 0.639375 0.28875 1.27875 0.4375 1.9375 C0.623125 2.618125 0.80875 3.29875 1 4 C2.72261623 4.74755044 4.45000654 5.48842835 6.2109375 6.140625 C8.93739419 7.45027668 10.33825058 9.54061086 12 12 C11.67 12.66 11.34 13.32 11 14 C10.34 14 9.68 14 9 14 C9.350625 14.5775 9.70125 15.155 10.0625 15.75 C11.16577711 18.39786506 10.80156509 19.33185326 10 22 C9.69707031 21.46890625 9.39414063 20.9378125 9.08203125 20.390625 C4.1262696 12.03444843 -0.70656376 9.38200696 -10 7 C-10 7.33 -10 7.66 -10 8 C-11.0725 8.0825 -12.145 8.165 -13.25 8.25 C-17.35603475 9.07120695 -18.62427019 9.61915374 -21 13 C-21.80315654 16.14481791 -21.80315654 16.14481791 -22 19 C-25.4375 18.1875 -25.4375 18.1875 -29 17 C-30.13013378 13.60959867 -29.99031591 13.23423454 -28.5 10.1875 C-25.57775997 4.71585746 -21.6161381 1.1990633 -16 -1.375 C-10.33232227 -2.55576619 -5.28967658 -2.51889361 0 0 Z " fill="#4965C4" transform="translate(198,122)"/>
<path d="M0 0 C0.99 0 1.98 0 3 0 C5.09534185 3.45547603 5.30071628 6.29197531 5.4140625 10.296875 C5.45273438 11.50214844 5.49140625 12.70742187 5.53125 13.94921875 C5.5621875 15.20347656 5.593125 16.45773438 5.625 17.75 C5.66367188 19.01972656 5.70234375 20.28945312 5.7421875 21.59765625 C5.83644222 24.7316257 5.92205166 27.86558949 6 31 C4.35 31.66 2.7 32.32 1 33 C1 33.66 1 34.32 1 35 C-2 37 -2 37 -5 37 C-5 37.66 -5 38.32 -5 39 C-7.97 39.495 -7.97 39.495 -11 40 C-11.95414383 31.79436303 -8.00361887 24.63336863 -4.8125 17.25390625 C-2.46164274 11.71383454 -1.47646265 7.00342939 -1 1 C-0.67 0.67 -0.34 0.34 0 0 Z " fill="#C07174" transform="translate(213,147)"/>
<path d="M0 0 C0.99 0.33 1.98 0.66 3 1 C3 1.99 3 2.98 3 4 C3.76143311 3.96447021 4.52286621 3.92894043 5.30737305 3.89233398 C8.76716159 3.73443583 12.22729044 3.5858732 15.6875 3.4375 C16.88568359 3.38142578 18.08386719 3.32535156 19.31835938 3.26757812 C20.47529297 3.21923828 21.63222656 3.17089844 22.82421875 3.12109375 C23.88729248 3.0739624 24.95036621 3.02683105 26.0456543 2.97827148 C29 3 29 3 31.74926758 3.55493164 C34.55218552 4.10919126 35.56305935 3.34451898 38 2 C38.66 2.33 39.32 2.66 40 3 C40 3.66 40 4.32 40 5 C37.56700555 6.58647813 35.14338525 8.06157923 32.625 9.5 C31.24065978 10.29944371 29.8577809 11.10142466 28.4765625 11.90625 C27.549646 12.43702148 27.549646 12.43702148 26.60400391 12.97851562 C24.82649008 14.02910749 24.82649008 14.02910749 23 16 C24.98 16.66 26.96 17.32 29 18 C29 18.66 29 19.32 29 20 C25.87709365 19.51421457 23.00419641 19.0013988 20 18 C18.66830891 17.93064109 17.33331363 17.9154415 16 17.9375 C15.20368164 17.94587891 14.40736328 17.95425781 13.58691406 17.96289062 C12.3063916 17.98125977 12.3063916 17.98125977 11 18 C0.96757041 18.08111483 -8.99016849 17.63410697 -19 17 C-19 16.67 -19 16.34 -19 16 C5.98265839 13.61223194 5.98265839 13.61223194 16 14 C16 12.35 16 10.7 16 9 C17.32 8.67 18.64 8.34 20 8 C20 7.34 20 6.68 20 6 C18.68 6.33 17.36 6.66 16 7 C16 6.34 16 5.68 16 5 C14.85724609 5.2165625 14.85724609 5.2165625 13.69140625 5.4375 C7.37234057 6.57351181 1.41957091 7.50948975 -5 7 C-6.74609375 5.48046875 -6.74609375 5.48046875 -8 4 C-5.64561267 2.57055055 -4.51967567 1.91338739 -1.75 2.375 C-1.1725 2.58125 -0.595 2.7875 0 3 C0 2.01 0 1.02 0 0 Z " fill="#D97B75" transform="translate(280,152)"/>
<path d="M0 0 C8.682515 1.08531437 13.92456354 3.16941506 19.5546875 9.96484375 C22.8187681 14.5610221 23.7550487 18.36617507 23 24 C21.25851826 30.9438829 18.24032624 35.13506447 13.03515625 39.921875 C6.17852623 46.92327072 3.81414609 54.07115036 3.8984375 63.58203125 C4.00588445 66.14009523 4.33984088 68.52440328 5 71 C4.34 71 3.68 71 3 71 C2.10404387 68.94651665 1.23393124 66.88174343 0.375 64.8125 C-0.11226562 63.66394531 -0.59953125 62.51539063 -1.1015625 61.33203125 C-2.13455671 57.5009701 -1.88017778 56.40222646 0 53 C0.42539063 52.18917969 0.85078125 51.37835938 1.2890625 50.54296875 C1.72992188 49.76566406 2.17078125 48.98835938 2.625 48.1875 C3.07101563 47.39730469 3.51703125 46.60710937 3.9765625 45.79296875 C4.31429687 45.20128906 4.65203125 44.60960937 5 44 C5.66 44 6.32 44 7 44 C7 43.34 7 42.68 7 42 C7.66 42 8.32 42 9 42 C8.938125 41.0925 8.87625 40.185 8.8125 39.25 C9.02584053 35.55209756 9.67792311 34.75209113 12 32 C13.03041427 30.01549844 14.03685937 28.01800895 15 26 C15.66 26 16.32 26 17 26 C17 25.34 17 24.68 17 24 C17.66 24 18.32 24 19 24 C18.67 21.03 18.34 18.06 18 15 C16.68 14.67 15.36 14.34 14 14 C14 11.69 14 9.38 14 7 C13.34 6.67 12.68 6.34 12 6 C11.67 5.67 11.34 5.34 11 5 C8.31137336 4.60006314 5.63647783 4.24865457 2.9375 3.9375 C2.17888672 3.84662109 1.42027344 3.75574219 0.63867188 3.66210938 C-1.2404301 3.4375626 -3.12016095 3.21829022 -5 3 C-5 2.67 -5 2.34 -5 2 C-3.35 1.67 -1.7 1.34 0 1 C0 0.67 0 0.34 0 0 Z " fill="#83B2CE" transform="translate(186,128)"/>
<path d="M0 0 C0.66 0 1.32 0 2 0 C2.05423638 1.91635217 2.09289963 3.83314925 2.125 5.75 C2.14820313 6.81734375 2.17140625 7.8846875 2.1953125 8.984375 C2.00487687 11.92470106 1.52670104 13.52361878 0 16 C2.31 15.34 4.62 14.68 7 14 C5.1006916 19.53964949 2.55223368 23.43513334 -2.625 26.3125 C-9.8701834 29.35474396 -18.30838606 28.29870345 -26 28 C-26 27.01 -26 26.02 -26 25 C-23.32355669 23.21570446 -21.69207932 22.53334875 -18.6875 21.6875 C-14.06159521 20.17561892 -11.37445573 18.53514409 -8 15 C-6.91698965 12.70401807 -5.92203709 10.36522558 -5 8 C-3.48659926 5.23513326 -1.95160389 2.47976072 0 0 Z " fill="#B58E81" transform="translate(270,251)"/>
<path d="M0 0 C0.75 1.75 0.75 1.75 1 4 C-0.89454327 6.47747966 -2.37538176 7.77496919 -5.3203125 8.8359375 C-8.56309631 10.24461035 -10.65572468 12.10767426 -13.25 14.5 C-14.12140625 15.2940625 -14.9928125 16.088125 -15.890625 16.90625 C-18.04297528 18.81949035 -18.04297528 18.81949035 -19 21 C-19.66 21 -20.32 21 -21 21 C-21 21.66 -21 22.32 -21 23 C-22.2065625 23.8971875 -22.2065625 23.8971875 -23.4375 24.8125 C-26.23365948 26.7375421 -26.23365948 26.7375421 -26.5 29.625 C-26.665 30.40875 -26.83 31.1925 -27 32 C-29.375 33.0625 -29.375 33.0625 -32 34 C-33.63676257 35.9600281 -33.63676257 35.9600281 -35 38 C-35.99 38.66 -36.98 39.32 -38 40 C-40.69838448 42.56675597 -42.93032576 44.89548863 -45 48 C-45.66 48 -46.32 48 -47 48 C-47.33 48.99 -47.66 49.98 -48 51 C-49.6222454 52.70993434 -51.29413425 54.37347684 -53 56 C-53.763125 56.763125 -54.52625 57.52625 -55.3125 58.3125 C-55.869375 58.869375 -56.42625 59.42625 -57 60 C-57.66 59.67 -58.32 59.34 -59 59 C-42.10344741 36.49618438 -23.63803575 15.59550879 0 0 Z " fill="#E46666" transform="translate(299,96)"/>
<path d="M0 0 C1.9375 2.5 1.9375 2.5 3 5 C2.34 5 1.68 5 1 5 C-0.390117 7.90876913 -0.390117 7.90876913 -1 11 C-1 11.66 -1 12.32 -1 13 C0.32 13.33 1.64 13.66 3 14 C2.67 14.66 2.34 15.32 2 16 C3.98 16 5.96 16 8 16 C8 16.99 8 17.98 8 19 C7.01 19.33 6.02 19.66 5 20 C4.29875 19.4225 3.5975 18.845 2.875 18.25 C-4.85087602 12.20366224 -13.89891591 12.28271878 -23.3203125 13.234375 C-24.88618183 13.44991977 -26.444861 13.71724745 -28 14 C-24.39839616 6.99688142 -19.24069278 3.63297919 -12 1 C-7.97543615 -0.10675506 -4.15783588 -0.46198176 0 0 Z " fill="#D87675" transform="translate(168,137)"/>
<path d="M0 0 C1.09054688 0.23783203 1.09054688 0.23783203 2.203125 0.48046875 C4.91348691 1.04916039 4.91348691 1.04916039 7.359375 1.11328125 C11.71719877 1.47643323 14.21855565 2.20284822 17.33203125 5.37890625 C19.26258663 7.97213914 21.09189355 10.60216108 22.86035156 13.30810547 C24.75464526 16.12032812 26.8594509 18.75860922 28.9375 21.4375 C31.58616983 24.87096089 33.57647418 27.89338887 35 32 C34.05125 31.175 33.1025 30.35 32.125 29.5 C30.75082371 28.33236323 29.37573819 27.1657961 28 26 C26.87658203 25.02546875 26.87658203 25.02546875 25.73046875 24.03125 C16.83609207 16.55939883 7.25007781 11.83740901 -4 9 C-0.90226756 8.15937603 1.78332751 7.91064799 5 8 C3.7625 6.576875 3.7625 6.576875 2.5 5.125 C0 2.25 0 2.25 0 0 Z " fill="#AE4A6F" transform="translate(249,204)"/>
<path d="M0 0 C6.50913505 0.75105404 6.50913505 0.75105404 8.87597656 1.95141602 C11.45681992 3.22552202 13.92341832 3.78405007 16.734375 4.40234375 C18.4208313 4.77576904 18.4208313 4.77576904 20.14135742 5.15673828 C21.33220947 5.41438965 22.52306152 5.67204102 23.75 5.9375 C24.96469971 6.20546387 26.17939941 6.47342773 27.4309082 6.74951172 C33.99708032 8.18437269 40.56350196 9.49200144 47.1875 10.625 C56.74813678 12.37980042 63.88851213 16.29310443 71 23 C71.495 24.485 71.495 24.485 72 26 C68.44494396 24.69378623 65.23934607 23.02807809 61.93798828 21.18212891 C52.46035165 16.01229184 43.11075664 14.04024657 32.5144043 12.40405273 C20.66920543 10.50058598 10.32518064 7.22060266 0 1 C0 0.67 0 0.34 0 0 Z " fill="#912979" transform="translate(202,207)"/>
<path d="M0 0 C1.4391134 0.28359887 2.87625518 0.57721399 4.3125 0.875 C5.11300781 1.03742188 5.91351563 1.19984375 6.73828125 1.3671875 C9 2 9 2 12 4 C14.23822757 4.40490549 16.49169059 4.72861518 18.75 5 C31.57288737 6.55428938 43.97216543 11.43559935 52.30712891 21.72509766 C57.10611316 28.11130225 57.10611316 28.11130225 56.71875 31.35546875 C56.4815625 31.89816406 56.244375 32.44085938 56 33 C55.69449219 32.443125 55.38898438 31.88625 55.07421875 31.3125 C47.86947908 19.29783554 36.11432825 13.61015499 23 10 C18.54542021 8.96551627 14.067585 8.07806618 9.56274414 7.29199219 C8.75184326 7.14922852 7.94094238 7.00646484 7.10546875 6.859375 C6.38512451 6.74045898 5.66478027 6.62154297 4.92260742 6.49902344 C3 6 3 6 0 4 C-0.33 3.34 -0.66 2.68 -1 2 C-0.67 1.34 -0.34 0.68 0 0 Z " fill="#BA5B6F" transform="translate(218,217)"/>
<path d="M0 0 C-0.825 0.7425 -1.65 1.485 -2.5 2.25 C-5.44844853 4.87387385 -5.44844853 4.87387385 -5 9 C-4.01 9.33 -3.02 9.66 -2 10 C-1.67 11.32 -1.34 12.64 -1 14 C3.29 14.66 7.58 15.32 12 16 C12 16.33 12 16.66 12 17 C5.45688671 17.87557031 0.23352019 18.3548854 -6 16 C-6.33 16.99 -6.66 17.98 -7 19 C-7.4125 18.54625 -7.825 18.0925 -8.25 17.625 C-9.8881966 15.89751355 -9.8881966 15.89751355 -12 15.25 C-15.20845821 13.24471362 -15.81702295 10.48978229 -17 7 C-17.1875 4.0625 -17.1875 4.0625 -17 2 C-11.19233704 0.4943096 -6.0018137 -0.21824777 0 0 Z " fill="#94BAB3" transform="translate(212,186)"/>
<path d="M0 0 C5.48094366 -0.049467 10.96175713 -0.0857514 16.44287109 -0.10986328 C18.30715194 -0.11991593 20.17141703 -0.13356005 22.03564453 -0.15087891 C24.71651091 -0.17515953 27.39716866 -0.18649047 30.078125 -0.1953125 C30.91055725 -0.20563507 31.7429895 -0.21595764 32.60064697 -0.22659302 C36.65161516 -0.22737706 39.45316698 -0.14776919 43 2 C44.99960012 2.039992 47.00047242 2.04346799 49 2 C49.66 2.33 50.32 2.66 51 3 C51 3.66 51 4.32 51 5 C48.5034256 6.13315391 46.00316228 7.25656579 43.5 8.375 C42.80390625 8.69210938 42.1078125 9.00921875 41.390625 9.3359375 C36.65177346 11.44209374 32.06309922 12.87106571 27 14 C27.33 14.99 27.66 15.98 28 17 C26.35232753 16.71890887 24.70686855 16.42481474 23.0625 16.125 C22.14597656 15.96257812 21.22945313 15.80015625 20.28515625 15.6328125 C19.15400391 15.31957031 19.15400391 15.31957031 18 15 C17.67 14.34 17.34 13.68 17 13 C18.43429001 12.32645501 19.87257057 11.66140299 21.3125 11 C22.11300781 10.62875 22.91351563 10.2575 23.73828125 9.875 C26 9 26 9 29 9 C29 8.34 29 7.68 29 7 C31.31 7 33.62 7 36 7 C35.34 6.34 34.68 5.68 34 5 C34.66 5 35.32 5 36 5 C35.505 4.01 35.505 4.01 35 3 C23.45 2.34 11.9 1.68 0 1 C0 0.67 0 0.34 0 0 Z " fill="#D0817C" transform="translate(263,169)"/>
<path d="M0 0 C6.98949089 2.34928608 14.26601309 5.09643986 19 11 C19.85244358 14.48389986 19.79932669 17.50981018 19 21 C18.34 21.99 17.68 22.98 17 24 C16.61500109 25.65549531 16.27206865 27.3222433 16 29 C15.34 29 14.68 29 14 29 C13.01 31.475 13.01 31.475 12 34 C11.34 34 10.68 34 10 34 C10.66 28.06 11.32 22.12 12 16 C10.68 15.67 9.36 15.34 8 15 C8 12.36 8 9.72 8 7 C6.68 7 5.36 7 4 7 C0 2.77777778 0 2.77777778 0 0 Z " fill="#E58F61" transform="translate(249,229)"/>
<path d="M0 0 C1 3 1 3 0.07421875 5.3125 C-0.38339844 6.199375 -0.84101563 7.08625 -1.3125 8 C-3.6917769 12.94309605 -4.8737582 17.46873287 -5.640625 22.8828125 C-6 25 -6 25 -7 26 C-8.99958364 26.04080783 -11.00045254 26.04254356 -13 26 C-11.34724308 33.68138452 -8.60488609 38.50260488 -3 44 C-4.98 44.495 -4.98 44.495 -7 45 C-7.53109375 44.39671875 -8.0621875 43.7934375 -8.609375 43.171875 C-9.31578125 42.37265625 -10.0221875 41.5734375 -10.75 40.75 C-11.44609375 39.96109375 -12.1421875 39.1721875 -12.859375 38.359375 C-14.94022941 35.98326987 -14.94022941 35.98326987 -17.23828125 34 C-19.93930812 30.93364577 -19.49479676 28.51052866 -19.31640625 24.5859375 C-18.3912084 17.02444394 -14.75999015 11.79209157 -10 6 C-10 9 -10 9 -12.0625 11.6875 C-14.65228607 16.11519877 -14.0174146 18.08249609 -13 23 C-11.35 23 -9.7 23 -8 23 C-7.86722656 22.21753906 -7.73445312 21.43507812 -7.59765625 20.62890625 C-7.42105469 19.61699219 -7.24445313 18.60507813 -7.0625 17.5625 C-6.80146484 16.04849609 -6.80146484 16.04849609 -6.53515625 14.50390625 C-6 12 -6 12 -5 11 C-4.63239269 8.67182036 -4.29758419 6.3381615 -4 4 C-3.01 4 -2.02 4 -1 4 C-0.67 2.68 -0.34 1.36 0 0 Z " fill="#6C429A" transform="translate(208,162)"/>
<path d="M0 0 C0.33 1.65 0.66 3.3 1 5 C0.32195312 4.77183594 -0.35609375 4.54367188 -1.0546875 4.30859375 C-7.77099902 2.23416512 -13.08165079 1.754397 -20 3 C-20.33 3.99 -20.66 4.98 -21 6 C-20.67 5.34 -20.34 4.68 -20 4 C-19.34 4.33 -18.68 4.66 -18 5 C-18.33 5.66 -18.66 6.32 -19 7 C-16.03 7 -13.06 7 -10 7 C-10 7.33 -10 7.66 -10 8 C-11.0725 8.0825 -12.145 8.165 -13.25 8.25 C-17.35603475 9.07120695 -18.62427019 9.61915374 -21 13 C-21.80315654 16.14481791 -21.80315654 16.14481791 -22 19 C-25.4375 18.1875 -25.4375 18.1875 -29 17 C-30.13013378 13.60959867 -29.99031591 13.23423454 -28.5 10.1875 C-25.57775997 4.71585746 -21.6161381 1.1990633 -16 -1.375 C-10.14123005 -2.59557707 -5.56404964 -2.17133645 0 0 Z " fill="#4567C1" transform="translate(198,122)"/>
<path d="M0 0 C0.495 0.639375 0.99 1.27875 1.5 1.9375 C2.325 2.948125 3.15 3.95875 4 5 C4.54785156 5.70125 5.09570312 6.4025 5.66015625 7.125 C10.12134118 12.54804205 14.4202151 15.72037629 20.77734375 18.7109375 C23 20 23 20 24 23 C26.01508358 23.73323796 26.01508358 23.73323796 28 24 C28 24.66 28 25.32 28 26 C28.66 26.66 29.32 27.32 30 28 C21.20124525 28.51530042 14.5396235 23.55792776 8.0625 18 C0.28307368 10.6388224 0.28307368 10.6388224 -0.23046875 5.8515625 C-0.24759119 3.89960448 -0.13430396 1.94740744 0 0 Z " fill="#A25285" transform="translate(190,193)"/>
<path d="M0 0 C3.31398638 0.6952419 6.14733978 1.89309029 9.1875 3.375 C10.06792969 3.79523438 10.94835937 4.21546875 11.85546875 4.6484375 C14 6 14 6 15 9 C15.66 9.66 16.32 10.32 17 11 C15.06257659 11.02703381 13.12504521 11.04641125 11.1875 11.0625 C10.10855469 11.07410156 9.02960938 11.08570313 7.91796875 11.09765625 C5 11 5 11 2 10 C2.78130071 12.49552484 2.78130071 12.49552484 4 15 C4.99 15.33 5.98 15.66 7 16 C7 16.66 7 17.32 7 18 C3.7 17.34 0.4 16.68 -3 16 C-2.01 15.34 -1.02 14.68 0 14 C-2.31537955 10.27885429 -4.28579473 7.38770339 -8 5 C-7.67 4.34 -7.34 3.68 -7 3 C-6.071875 3.37125 -5.14375 3.7425 -4.1875 4.125 C-3.135625 4.41375 -2.08375 4.7025 -1 5 C-0.01 4.34 0.98 3.68 2 3 C1.34 2.67 0.68 2.34 0 2 C0 1.34 0 0.68 0 0 Z " fill="#B69E9B" transform="translate(247,194)"/>
<path d="M0 0 C0.33 0 0.66 0 1 0 C1.125 5.75 1.125 5.75 0 8 C-0.66 8 -1.32 8 -2 8 C-2.12375 8.804375 -2.2475 9.60875 -2.375 10.4375 C-2.684375 11.7059375 -2.684375 11.7059375 -3 13 C-3.99 13.495 -3.99 13.495 -5 14 C-5.73353557 15.66712629 -6.46059795 17.3376847 -7.140625 19.02734375 C-8.00743845 21.01707462 -9.0143981 22.82442508 -10.125 24.6875 C-13.95795793 31.45905901 -13.99366839 39.52374356 -12 47 C-12.66 47 -13.32 47 -14 47 C-14.89595613 44.94651665 -15.76606876 42.88174343 -16.625 40.8125 C-17.11226562 39.66394531 -17.59953125 38.51539063 -18.1015625 37.33203125 C-19.13455671 33.5009701 -18.88017778 32.40222646 -17 29 C-16.36191406 27.78376953 -16.36191406 27.78376953 -15.7109375 26.54296875 C-15.04964844 25.37701172 -15.04964844 25.37701172 -14.375 24.1875 C-13.92898437 23.39730469 -13.48296875 22.60710937 -13.0234375 21.79296875 C-12.68570313 21.20128906 -12.34796875 20.60960937 -12 20 C-11.34 20 -10.68 20 -10 20 C-10 19.34 -10 18.68 -10 18 C-9.34 18 -8.68 18 -8 18 C-8.061875 17.0925 -8.12375 16.185 -8.1875 15.25 C-7.97415947 11.55209756 -7.32207689 10.75209113 -5 8 C-3.96958573 6.01549844 -2.96314063 4.01800895 -2 2 C-1.34 2 -0.68 2 0 2 C0 1.34 0 0.68 0 0 Z " fill="#95B4B2" transform="translate(203,152)"/>
<path d="M0 0 C3.3125 -0.3125 3.3125 -0.3125 7 0 C8.9375 2.5 8.9375 2.5 10 5 C9.34 5 8.68 5 8 5 C6.609883 7.90876913 6.609883 7.90876913 6 11 C6 11.66 6 12.32 6 13 C7.32 13.33 8.64 13.66 10 14 C9.67 14.66 9.34 15.32 9 16 C10.98 16 12.96 16 15 16 C15 16.99 15 17.98 15 19 C14.01 19.33 13.02 19.66 12 20 C11.319375 19.443125 10.63875 18.88625 9.9375 18.3125 C5.98457823 15.20062542 1.69357689 13.71338341 -3 12 C-2.979375 11.21625 -2.95875 10.4325 -2.9375 9.625 C-2.81315937 7.01885039 -2.81315937 7.01885039 -4 5 C-3.01 5 -2.02 5 -1 5 C-1 4.34 -1 3.68 -1 3 C-0.34 2.67 0.32 2.34 1 2 C0.67 1.34 0.34 0.68 0 0 Z " fill="#CE8180" transform="translate(161,137)"/>
<path d="M0 0 C0.99 0 1.98 0 3 0 C3 0.66 3 1.32 3 2 C2.01 2 1.02 2 0 2 C0.04125 3.051875 0.0825 4.10375 0.125 5.1875 C0.0040684 8.87591379 -0.62154805 10.67549823 -2 14 C-2.45395602 16.66387381 -2.726319 19.30880349 -3 22 C-4.98 22 -6.96 22 -9 22 C-10.23806618 19.45104021 -11.01466914 17.54275807 -10.9375 14.6875 C-9.57866414 10.79217054 -7.7128343 7.12963095 -5 4 C-3.66977109 3.654486 -2.33666828 3.31969798 -1 3 C-0.67 2.01 -0.34 1.02 0 0 Z " fill="#6B40A2" transform="translate(204,164)"/>
<path d="M0 0 C0.66 0 1.32 0 2 0 C2.125 3.375 2.125 3.375 2 7 C1.34 7.66 0.68 8.32 0 9 C0.33 9.99 0.66 10.98 1 12 C2.65 11.67 4.3 11.34 6 11 C3.79785789 14.0279454 1.10563739 14.85199977 -2.4609375 15.66015625 C-7.61441147 16.34992892 -12.81324525 16.14231949 -18 16 C-15.89475278 14.38695178 -13.77484419 12.8509786 -11.5625 11.38671875 C-6.47033674 8.01005561 -3.07963688 5.26104634 0 0 Z " fill="#BA9689" transform="translate(253,257)"/>
<path d="M0 0 C5.45479185 0.56820748 9.91059256 1.94637945 15 4 C15 4.66 15 5.32 15 6 C12.36 6 9.72 6 7 6 C6.67 6.66 6.34 7.32 6 8 C-2.00996896 8.37743309 -9.48473039 8.07378757 -17 5 C-17.33 4.34 -17.66 3.68 -18 3 C-10.79016324 2.01737857 -5.44951718 1.3355016 1 5 C0.67 3.35 0.34 1.7 0 0 Z " fill="#CC6C6A" transform="translate(236,207)"/>
<path d="M0 0 C0.99 0.33 1.98 0.66 3 1 C3.309375 1.804375 3.61875 2.60875 3.9375 3.4375 C4.76608159 6.14157493 4.76608159 6.14157493 7.125 7.3125 C7.74375 7.539375 8.3625 7.76625 9 8 C9 8.66 9 9.32 9 10 C9.66 10 10.32 10 11 10 C11 10.66 11 11.32 11 12 C11.66 12 12.32 12 13 12 C17 16.35294118 17 16.35294118 17 20 C16.195625 20.12375 15.39125 20.2475 14.5625 20.375 C13.716875 20.58125 12.87125 20.7875 12 21 C11.67 21.66 11.34 22.32 11 23 C10.34 23 9.68 23 9 23 C8.67 19.04 8.34 15.08 8 11 C6.35 10.67 4.7 10.34 3 10 C3 9.34 3 8.68 3 8 C2.01 8 1.02 8 0 8 C0 5.36 0 2.72 0 0 Z " fill="#8D7FA2" transform="translate(213,139)"/>
<path d="M0 0 C0 3 0 3 -1 5 C-0.34 5.33 0.32 5.66 1 6 C0.375 7.8125 0.375 7.8125 -1 10 C-1.94875 10.45375 -2.8975 10.9075 -3.875 11.375 C-7.61072027 13.31757454 -8.81025937 15.48077399 -11 19 C-11.66 19 -12.32 19 -13 19 C-13.33 19.99 -13.66 20.98 -14 22 C-15.6222454 23.70993434 -17.29413425 25.37347684 -19 27 C-19.763125 27.763125 -20.52625 28.52625 -21.3125 29.3125 C-21.869375 29.869375 -22.42625 30.42625 -23 31 C-23.66 30.67 -24.32 30.34 -25 30 C-19.71181393 22.95688493 -14.30186762 16.05799444 -8.5625 9.375 C-8.05493164 8.78380371 -7.54736328 8.19260742 -7.02441406 7.58349609 C-4.76287326 4.96977295 -2.49973293 2.38957521 0 0 Z " fill="#D66B6D" transform="translate(265,125)"/>
<path d="M0 0 C0.66 0 1.32 0 2 0 C5.686372 8.90873233 7.03911458 18.879217 3.375 28.0625 C1.29132276 32.07994964 -1.32635912 34.41175302 -5 37 C-6.1781052 33.46568441 -5.79439516 32.70136881 -4.375 29.375 C-4.05273438 28.57835937 -3.73046875 27.78171875 -3.3984375 26.9609375 C-2 25 -2 25 0.6484375 24.2265625 C1.42445313 24.15179688 2.20046875 24.07703125 3 24 C3.08160748 22.10489301 3.13946459 20.20875496 3.1875 18.3125 C3.22230469 17.25675781 3.25710938 16.20101562 3.29296875 15.11328125 C2.96332917 11.61031129 1.87069149 9.92295545 0 7 C-0.1875 3.1875 -0.1875 3.1875 0 0 Z " fill="#BF5E63" transform="translate(283,236)"/>
<path d="M0 0 C0.33 0.66 0.66 1.32 1 2 C2.32 2 3.64 2 5 2 C5.495 3.485 5.495 3.485 6 5 C5.34 5.33 4.68 5.66 4 6 C4 5.34 4 4.68 4 4 C3.01 4.61875 2.02 5.2375 1 5.875 C-2.89746801 8.12261959 -6.6118123 9.07617101 -11 10 C-11 10.66 -11 11.32 -11 12 C-11.804375 12.268125 -12.60875 12.53625 -13.4375 12.8125 C-14.283125 13.204375 -15.12875 13.59625 -16 14 C-16.33 14.99 -16.66 15.98 -17 17 C-20.41482003 19.56111503 -22.74808535 20.36444983 -27 20 C-27 19.34 -27 18.68 -27 18 C-25.02 17.34 -23.04 16.68 -21 16 C-21 15.34 -21 14.68 -21 14 C-19.02866014 12.62464661 -17.02318078 11.29788956 -15 10 C-14.195625 9.319375 -13.39125 8.63875 -12.5625 7.9375 C-9.56130193 5.66830146 -6.45105119 4.46989218 -3 3 C-1.11970761 1.46048953 -1.11970761 1.46048953 0 0 Z " fill="#AA9EA0" transform="translate(235,166)"/>
<path d="M0 0 C6.50932186 0.7510756 6.50932186 0.7510756 8.87109375 1.94921875 C11.4680145 3.23100165 13.99020497 3.79623399 16.8125 4.4375 C20.32786451 5.27999003 23.64069526 6.13635469 26.9375 7.625 C29.68382307 8.85804301 32.0393188 9.55141194 35 10 C35 10.66 35 11.32 35 12 C21.83390578 11.76296721 11.18086468 7.78941395 0 1 C0 0.67 0 0.34 0 0 Z " fill="#872B82" transform="translate(202,207)"/>
<path d="M0 0 C9.17434011 1.68689479 16.85049754 4.46270944 25 9 C24.67 9.66 24.34 10.32 24 11 C25.485 11.99 25.485 11.99 27 13 C26.67 13.66 26.34 14.32 26 15 C25.319375 14.401875 24.63875 13.80375 23.9375 13.1875 C18.34926465 9.02604814 12.62014045 7.49706495 5.875 6.375 C4.49737177 6.13294943 3.11976704 5.89076507 1.7421875 5.6484375 C-0.11019531 5.32746094 -0.11019531 5.32746094 -2 5 C-3.66799322 4.67336947 -5.33535611 4.34329232 -7 4 C-7 3.67 -7 3.34 -7 3 C-3.535 2.505 -3.535 2.505 0 2 C0 1.34 0 0.68 0 0 Z " fill="#C86174" transform="translate(242,212)"/>
<path d="M0 0 C4.82422978 0.60770336 8.5268709 2.68887246 12.75 4.9375 C18.46498104 7.90198332 23.56631094 10.08090156 30 11 C29 14 29 14 26.5625 15.75 C25.716875 16.1625 24.87125 16.575 24 17 C21.50650682 15.75325341 20.53359929 14.30039894 19 12 C19 11.34 19 10.68 19 10 C17.989375 9.9175 16.97875 9.835 15.9375 9.75 C11.5961734 9.14484538 8.72051919 7.27365062 5 5 C3.34827188 4.29713697 1.68698082 3.61344757 0 3 C0 2.01 0 1.02 0 0 Z " fill="#795E9F" transform="translate(198,123)"/>
<path d="M0 0 C-0.33 0.53625 -0.66 1.0725 -1 1.625 C-2.22468781 4.04261143 -2.22468781 4.04261143 -1.8125 7.0625 C-2 10 -2 10 -4 11.9375 C-8.10022832 13.3896642 -10.74591432 12.79313462 -15 12 C-15 10.35 -15 8.7 -15 7 C-13.02 7.66 -11.04 8.32 -9 9 C-9.061875 8.071875 -9.12375 7.14375 -9.1875 6.1875 C-9 3 -9 3 -7.875 1.125 C-5.21965017 -0.4682099 -3.03210482 -0.20214032 0 0 Z " fill="#BB909A" transform="translate(185,132)"/>
<path d="M0 0 C3.01657791 0.14030595 5.23841273 0.29351465 7.51171875 2.40234375 C8.73256066 3.88904235 9.87246522 5.44134898 11 7 C10.67 7.66 10.34 8.32 10 9 C9.34 9 8.68 9 8 9 C8.5259375 9.86625 8.5259375 9.86625 9.0625 10.75 C10.16577711 13.39786506 9.80156509 14.33185326 9 17 C8.69707031 16.46890625 8.39414063 15.9378125 8.08203125 15.390625 C3.6072998 7.84553935 -0.76529636 4.79142496 -9 2 C-5.61682513 1.02408417 -3.4342662 1.14143345 0 2 C0 1.34 0 0.68 0 0 Z " fill="#5260B4" transform="translate(199,127)"/>
<path d="M0 0 C7.64478242 0.4777989 12.43731174 3.11845191 17.54296875 8.859375 C24.10259593 17.04191186 24.10259593 17.04191186 23.74609375 20.37109375 C23.49988281 20.90863281 23.25367188 21.44617188 23 22 C22.69449219 21.443125 22.38898438 20.88625 22.07421875 20.3125 C16.73362346 11.4064932 8.75552318 5.46863046 -1 2 C-0.67 1.34 -0.34 0.68 0 0 Z " fill="#C55D66" transform="translate(251,228)"/>
<path d="M0 0 C6.58358279 6.17210886 12.18647078 13.37857873 17 21 C16.67 21.66 16.34 22.32 16 23 C15.59910156 22.57589844 15.19820313 22.15179688 14.78515625 21.71484375 C10.19806499 16.98213054 5.27887165 12.93820583 0 9 C0.66 8.01 1.32 7.02 2 6 C1.34 5.34 0.68 4.68 0 4 C0 2.68 0 1.36 0 0 Z " fill="#A73B67" transform="translate(267,213)"/>
<path d="M0 0 C0.33 1.65 0.66 3.3 1 5 C0.32195312 4.77183594 -0.35609375 4.54367188 -1.0546875 4.30859375 C-7.40741312 2.34646382 -13.47338804 0.98198691 -20 3 C-20.99 4.485 -20.99 4.485 -22 6 C-22.66 6 -23.32 6 -24 6 C-24.28875 6.639375 -24.5775 7.27875 -24.875 7.9375 C-26 10 -26 10 -28 11 C-26.61044592 5.75057348 -23.31233063 2.9987005 -19 0 C-12.47513771 -2.99056188 -6.60042953 -2.57577738 0 0 Z " fill="#6E6C9D" transform="translate(198,122)"/>
<path d="M0 0 C0.71929687 0.14953125 1.43859375 0.2990625 2.1796875 0.453125 C3.96845994 0.79997838 5.76577497 1.10706884 7.5703125 1.359375 C14.53382084 2.42413163 14.53382084 2.42413163 17.125 5.625 C17.558125 6.800625 17.558125 6.800625 18 8 C13.45273718 9.51575427 9.49499367 8.47447245 5 7 C2.7492265 5.49616461 1.65525849 4.20701132 0 2 C0 1.34 0 0.68 0 0 Z " fill="#D56863" transform="translate(249,204)"/>
<path d="M0 0 C1.4540625 0.0309375 1.4540625 0.0309375 2.9375 0.0625 C1.2005859 4.19635555 -0.72692569 5.44870033 -4.6875 7.3125 C-8.78078388 8.60511596 -12.82187186 8.37533322 -17.0625 8.0625 C-13.93123093 4.11437813 -10.65839511 3.04394881 -5.98828125 1.67578125 C-0.77583333 0.01583333 -0.77583333 0.01583333 0 0 Z " fill="#7F99B4" transform="translate(260.0625,269.9375)"/>
<path d="M0 0 C2.01642698 0.99249524 4.00580023 2.00326335 5.96484375 3.10546875 C10.21943126 5.48786484 10.21943126 5.48786484 15 5.75 C15.99 5.37875 15.99 5.37875 17 5 C17.33 5.99 17.66 6.98 18 8 C20.01508358 8.73323796 20.01508358 8.73323796 22 9 C22 9.66 22 10.32 22 11 C22.66 11.66 23.32 12.32 24 13 C15.6335415 13.51599304 9.05573343 8.92826302 2.8125 3.6875 C1.884375 2.800625 0.95625 1.91375 0 1 C0 0.67 0 0.34 0 0 Z " fill="#A05578" transform="translate(196,208)"/>
<path d="M0 0 C0.99 0 1.98 0 3 0 C3 1.32 3 2.64 3 4 C2.01 4.495 2.01 4.495 1 5 C0.525625 6.11375 0.05125 7.2275 -0.4375 8.375 C-1.75585007 11.43357217 -2.49077403 12.96872183 -5 15 C-5.66 14.67 -6.32 14.34 -7 14 C-6.67 13.67 -6.34 13.34 -6 13 C-6.99 12.34 -7.98 11.68 -9 11 C-8.525625 10.566875 -8.05125 10.13375 -7.5625 9.6875 C-5.76313043 7.97690387 -5.76313043 7.97690387 -5 5 C-4.34 5 -3.68 5 -3 5 C-2.690625 4.360625 -2.38125 3.72125 -2.0625 3.0625 C-1 1 -1 1 0 0 Z " fill="#97898F" transform="translate(268,258)"/>
<path d="M0 0 C0.63526611 0.19118408 1.27053223 0.38236816 1.92504883 0.5793457 C9.44645341 2.74751431 16.94722662 4.07057116 24.6875 5.1875 C25.87794922 5.36474609 27.06839844 5.54199219 28.29492188 5.72460938 C31.19579509 6.15566283 34.09741212 6.5806768 37 7 C36.67 7.66 36.34 8.32 36 9 C32.66495276 8.74815329 29.3325765 8.47003486 26 8.1875 C25.06542969 8.11724609 24.13085938 8.04699219 23.16796875 7.97460938 C17.23927883 7.45636725 12.48295469 6.3086125 7 4 C4.67926229 3.27393427 2.34768385 2.63583104 0 2 C0 1.34 0 0.68 0 0 Z " fill="#A54983" transform="translate(213,214)"/>
<path d="M0 0 C0.99 0.33 1.98 0.66 3 1 C1.60667426 4.36720387 0.0210714 5.9859524 -3 8 C-2.34 8.66 -1.68 9.32 -1 10 C-5.29 10 -9.58 10 -14 10 C-12.68 9.01 -11.36 8.02 -10 7 C-9.18402344 6.38640625 -8.36804688 5.7728125 -7.52734375 5.140625 C-6.67269531 4.51671875 -5.81804687 3.8928125 -4.9375 3.25 C-4.08027344 2.61578125 -3.22304687 1.9815625 -2.33984375 1.328125 C-1.56769531 0.88984375 -0.79554688 0.4515625 0 0 Z " fill="#928D97" transform="translate(249,263)"/>
<path d="M0 0 C2.6855594 2.6855594 3.06049974 5.37621328 4 9 C1.48910624 9.89674777 0.35464891 10.13172674 -2.1875 9.1875 C-4 8 -4 8 -5 6 C-5.99 5.67 -6.98 5.34 -8 5 C-7.34 4.67 -6.68 4.34 -6 4 C-5.67 3.01 -5.34 2.02 -5 1 C-2.625 0.375 -2.625 0.375 0 0 Z " fill="#9FAFA9" transform="translate(230,199)"/>
<path d="M0 0 C4.47446744 1.19319132 6.41870739 2.18619831 9 6 C6.62734939 6.67617524 4.25244645 7.34108226 1.875 8 C1.20984375 8.19078125 0.5446875 8.3815625 -0.140625 8.578125 C-4.1986205 9.69208455 -7.79685974 10.20950232 -12 10 C-11.67 9.34 -11.34 8.68 -11 8 C-8.03 8 -5.06 8 -2 8 C-1.67 7.01 -1.34 6.02 -1 5 C-0.34 4.67 0.32 4.34 1 4 C-0.32 3.34 -1.64 2.68 -3 2 C-2.01 2 -1.02 2 0 2 C0 1.34 0 0.68 0 0 Z " fill="#BB8B83" transform="translate(291,184)"/>
<path d="M0 0 C1.6510403 0.39553053 3.2958515 0.81713897 4.9375 1.25 C5.85402344 1.48203125 6.77054688 1.7140625 7.71484375 1.953125 C8.46894531 2.29859375 9.22304687 2.6440625 10 3 C10.62890625 5.046875 10.62890625 5.046875 11 7 C11.99 7.33 12.98 7.66 14 8 C14 8.33 14 8.66 14 9 C12.35 9 10.7 9 9 9 C8.67 8.01 8.34 7.02 8 6 C6.35 6.66 4.7 7.32 3 8 C3 8.66 3 9.32 3 10 C2.01 9.67 1.02 9.34 0 9 C0 8.01 0 7.02 0 6 C0.66 6 1.32 6 2 6 C1.49396008 3.83125748 1.00016187 2.00032373 0 0 Z " fill="#6053B0" transform="translate(207,130)"/>
<path d="M0 0 C4.62057248 3.9788263 7.13164686 8.18053941 9 14 C9.25 17.5625 9.25 17.5625 9 20 C8.34 19.01 7.68 18.02 7 17 C6.34 17.33 5.68 17.66 5 18 C5 14.7 5 11.4 5 8 C3.35 8.66 1.7 9.32 0 10 C-0.95024979 6.30458414 -0.95024979 3.69541586 0 0 Z " fill="#D98D72" transform="translate(268,241)"/>
<path d="M0 0 C1.9375 0.125 1.9375 0.125 4 1 C4.70211894 2.65204456 5.36971413 4.31923769 6 6 C6.99 6.33 7.98 6.66 9 7 C9 7.99 9 8.98 9 10 C5.16967201 9.70535939 2.64765087 9.46954688 -0.5 7.1875 C-2 5 -2 5 -1.8125 2.8125 C-1 1 -1 1 0 0 Z " fill="#7DC6C7" transform="translate(201,189)"/>
<path d="M0 0 C1.32 0 2.64 0 4 0 C8 4.22222222 8 4.22222222 8 7 C5.54137599 7.05383848 3.0839245 7.09359038 0.625 7.125 C-0.42300781 7.15013672 -0.42300781 7.15013672 -1.4921875 7.17578125 C-3.32897486 7.19344267 -5.16601963 7.10303261 -7 7 C-7.66 6.34 -8.32 5.68 -9 5 C-5.7 5 -2.4 5 1 5 C0.67 3.35 0.34 1.7 0 0 Z " fill="#B48B87" transform="translate(263,200)"/>
<path d="M0 0 C0 0.99 0 1.98 0 3 C-3.33333333 6 -3.33333333 6 -6 6 C-6 6.99 -6 7.98 -6 9 C-9.33333333 12 -9.33333333 12 -12 12 C-12 12.66 -12 13.32 -12 14 C-12.66 14 -13.32 14 -14 14 C-14 14.66 -14 15.32 -14 16 C-14.66 16 -15.32 16 -16 16 C-15.875 14.3125 -15.875 14.3125 -15 12 C-13.58664761 10.78385957 -12.16539042 9.57433878 -10.6875 8.4375 C-8.24146404 6.35383974 -6.35593893 3.88962908 -4.39453125 1.35546875 C-3 0 -3 0 0 0 Z " fill="#C6797F" transform="translate(242,156)"/>
<path d="M0 0 C0.99 0.33 1.98 0.66 3 1 C-0.31365312 6.1865875 -4.09725479 8.6204312 -10 10 C-15.99214496 10.46134809 -22.00175862 10.23294141 -28 10 C-28 9.67 -28 9.34 -28 9 C-23.05 9 -18.1 9 -13 9 C-12.67 8.34 -12.34 7.68 -12 7 C-9 5 -9 5 -5.4375 4.625 C-1.92071493 4.40277185 -1.92071493 4.40277185 -0.5625 1.9375 C-0.376875 1.298125 -0.19125 0.65875 0 0 Z " fill="#9E837F" transform="translate(272,269)"/>
<path d="M0 0 C2.93015334 0.6452922 5.48756475 1.5680895 8.1875 2.875 C9.22970703 3.36613281 9.22970703 3.36613281 10.29296875 3.8671875 C12 5 12 5 13 8 C10.03 7.505 10.03 7.505 7 7 C7 6.34 7 5.68 7 5 C6.01 5.66 5.02 6.32 4 7 C1.3125 7.125 1.3125 7.125 -1 7 C-0.67 6.01 -0.34 5.02 0 4 C0.66 3.67 1.32 3.34 2 3 C1.34 2.67 0.68 2.34 0 2 C0 1.34 0 0.68 0 0 Z " fill="#AFA09D" transform="translate(247,194)"/>
<path d="M0 0 C1.98 0 3.96 0 6 0 C6.28875 0.61875 6.5775 1.2375 6.875 1.875 C7.93720042 4.13325765 7.93720042 4.13325765 10 6 C6.10885099 7.01911045 4.39403493 7.16782969 0.625 5.5625 C-0.24125 5.046875 -1.1075 4.53125 -2 4 C-1.34 2.68 -0.68 1.36 0 0 Z " fill="#AE3D73" transform="translate(261,214)"/>
<path d="M0 0 C0.66 0.33 1.32 0.66 2 1 C1.34 3.31 0.68 5.62 0 8 C-0.66 8 -1.32 8 -2 8 C-2 8.66 -2 9.32 -2 10 C-2.66 10 -3.32 10 -4 10 C-4.2475 10.845625 -4.495 11.69125 -4.75 12.5625 C-6.13973627 16.38427474 -7.91120838 19.51868063 -10 23 C-10.66 21.68 -11.32 20.36 -12 19 C-11.4225 18.525625 -10.845 18.05125 -10.25 17.5625 C-7.6747386 14.6295634 -6.50286204 11.83226798 -5.015625 8.26171875 C-3.65512639 5.231993 -1.93358639 2.69320962 0 0 Z " fill="#A3ADA4" transform="translate(195,162)"/>
<path d="M0 0 C0 0.66 0 1.32 0 2 C-3.12290635 1.51421457 -5.99580359 1.0013988 -9 0 C-10.9161425 -0.04482205 -12.83372831 -0.03890907 -14.75 0 C-19.30581955 0.04423126 -23.52340213 -0.18607311 -28 -1 C-28 -1.33 -28 -1.66 -28 -2 C-18.02967595 -3.05017373 -9.68178201 -3.24559738 0 0 Z " fill="#DF6C6C" transform="translate(309,170)"/>
<path d="M0 0 C4.37934119 0.51958285 8.68803391 1.05675742 13 2 C12 5 12 5 9.5625 6.75 C8.2940625 7.36875 8.2940625 7.36875 7 8 C4.50650682 6.75325341 3.53359929 5.30039894 2 3 C2 2.34 2 1.68 2 1 C1.34 0.67 0.68 0.34 0 0 Z " fill="#80569B" transform="translate(215,132)"/>
<path d="M0 0 C0.99 0 1.98 0 3 0 C4.76462683 3.08809695 5 4.23312136 5 8 C4.34 8 3.68 8 3 8 C2.34 6.68 1.68 5.36 1 4 C0.89042969 4.6290625 0.78085938 5.258125 0.66796875 5.90625 C-0.38049266 11.56623682 -1.82831017 16.6694886 -4 22 C-4.66 22 -5.32 22 -6 22 C-5.54625 20.7625 -5.0925 19.525 -4.625 18.25 C-2.97773915 13.37037823 -2.16207136 8.49439052 -1.4296875 3.40625 C-1 1 -1 1 0 0 Z " fill="#AB6A8A" transform="translate(213,147)"/>
<path d="M0 0 C0.33 0.66 0.66 1.32 1 2 C2.32 2 3.64 2 5 2 C5.33 2.99 5.66 3.98 6 5 C5.01 5.495 5.01 5.495 4 6 C4 5.34 4 4.68 4 4 C0.04 5.98 0.04 5.98 -4 8 C-4.33 7.67 -4.66 7.34 -5 7 C-9.455 8.485 -9.455 8.485 -14 10 C-10.77729712 6.26166466 -7.50363001 4.88333619 -3 3 C-1.11970761 1.46048953 -1.11970761 1.46048953 0 0 Z " fill="#B59499" transform="translate(235,166)"/>
<path d="M0 0 C-0.33 1.65 -0.66 3.3 -1 5 C-2.65 4.67 -4.3 4.34 -6 4 C-6 3.01 -6 2.02 -6 1 C-3 0 -3 0 0 0 Z M-8 4 C-7.34 4.33 -6.68 4.66 -6 5 C-7.65 6.65 -9.3 8.3 -11 10 C-11.33 9.01 -11.66 8.02 -12 7 C-10.68 6.01 -9.36 5.02 -8 4 Z M-14 10 C-13.34 10.33 -12.68 10.66 -12 11 C-15.465 13.97 -15.465 13.97 -19 17 C-19.33 16.34 -19.66 15.68 -20 15 C-19.34 15 -18.68 15 -18 15 C-18 14.34 -18 13.68 -18 13 C-16 11.375 -16 11.375 -14 10 Z " fill="#C18E8F" transform="translate(248,155)"/>
<path d="M0 0 C0.33 0 0.66 0 1 0 C2.7923583 5.12275379 3.50686714 8.83663147 1.3125 13.9375 C-0.22694106 17.11154757 -0.94827705 17.96551803 -4 20 C-3.690625 19.484375 -3.38125 18.96875 -3.0625 18.4375 C-1.70940713 15.33334577 -1.38640576 12.34884993 -1 9 C-1.66 8.67 -2.32 8.34 -3 8 C-2.01 5.36 -1.02 2.72 0 0 Z " fill="#BA9079" transform="translate(256,248)"/>
<path d="M0 0 C0.90807346 3.07184225 1.07877249 5.742291 1 8.9375 C0.95860666 12.44041119 1.09082462 15.59059233 2 19 C1.34 19 0.68 19 0 19 C-1.65 14.71 -3.3 10.42 -5 6 C-4.34 5.67 -3.68 5.34 -3 5 C-2.34 5.33 -1.68 5.66 -1 6 C-0.67 4.02 -0.34 2.04 0 0 Z " fill="#9DB9C3" transform="translate(189,180)"/>
<path d="M0 0 C0.66 0 1.32 0 2 0 C3.1484375 1.57421875 3.1484375 1.57421875 4.375 3.6875 C6.36542537 7.0127507 8.49508648 10.0312136 11 13 C6.75128382 12.50750176 4.91041775 11.40926002 2.125 8.1875 C1.50882813 7.50042969 0.89265625 6.81335938 0.2578125 6.10546875 C-1 4 -1 4 -0.6953125 1.73828125 C-0.46585938 1.16464844 -0.23640625 0.59101563 0 0 Z " fill="#713D8D" transform="translate(194,194)"/>
<path d="M0 0 C0.33 0.66 0.66 1.32 1 2 C0.67 2.66 0.34 3.32 0 4 C-1.32 4 -2.64 4 -4 4 C-4.103125 4.61875 -4.20625 5.2375 -4.3125 5.875 C-5 8 -5 8 -8 10 C-9.32 10 -10.64 10 -12 10 C-10.73065269 6.19195808 -9.02248683 4.61948859 -6 2 C-2.6875 0.6875 -2.6875 0.6875 0 0 Z " fill="#BE8A7B" transform="translate(276,265)"/>
<path d="M0 0 C4.16516721 0.48059622 7.28813539 1.1440677 11 3 C12.57158878 3.42151885 14.15629082 3.7968834 15.75 4.125 C16.54921875 4.29257813 17.3484375 4.46015625 18.171875 4.6328125 C18.77515625 4.75398437 19.3784375 4.87515625 20 5 C20 5.33 20 5.66 20 6 C12.42461384 7.73861322 8.70055635 6.32859292 2.08984375 2.34765625 C1.40019531 1.90292969 0.71054688 1.45820313 0 1 C0 0.67 0 0.34 0 0 Z " fill="#87327A" transform="translate(202,207)"/>
<path d="M0 0 C4.89924088 0.61240511 9.61307838 1.68579823 14 4 C15.5 6.1875 15.5 6.1875 16 8 C12.125 6.125 12.125 6.125 11 5 C8.31137336 4.60006314 5.63647783 4.24865457 2.9375 3.9375 C2.17888672 3.84662109 1.42027344 3.75574219 0.63867188 3.66210938 C-1.2404301 3.4375626 -3.12016095 3.21829022 -5 3 C-5 2.67 -5 2.34 -5 2 C-3.35 1.67 -1.7 1.34 0 1 C0 0.67 0 0.34 0 0 Z " fill="#8B94B8" transform="translate(186,128)"/>
<path d="M0 0 C-2.125 2.5625 -2.125 2.5625 -5 5 C-8.0625 4.75 -8.0625 4.75 -11 4 C-12.34164079 4.2981424 -13.67851173 4.62243192 -15 5 C-15.66 4.67 -16.32 4.34 -17 4 C-17 3.34 -17 2.68 -17 2 C-11.19233704 0.4943096 -6.0018137 -0.21824777 0 0 Z " fill="#8DB8C2" transform="translate(212,186)"/>
<path d="M0 0 C1.60294922 0.01353516 1.60294922 0.01353516 3.23828125 0.02734375 C4.04652344 0.03894531 4.85476563 0.05054688 5.6875 0.0625 C5.6875 1.0525 5.6875 2.0425 5.6875 3.0625 C4.56601562 3.02769531 4.56601562 3.02769531 3.421875 2.9921875 C2.43703125 2.97414062 1.4521875 2.95609375 0.4375 2.9375 C-0.53703125 2.91429687 -1.5115625 2.89109375 -2.515625 2.8671875 C-5.3321498 3.06387219 -6.92199036 3.61681084 -9.3125 5.0625 C-9.9725 3.7425 -10.6325 2.4225 -11.3125 1.0625 C-7.47525828 0.15836327 -3.93747726 -0.04326898 0 0 Z " fill="#D56A68" transform="translate(315.3125,133.9375)"/>
<path d="M0 0 C1 3 1 3 0.07421875 5.3125 C-0.38339844 6.199375 -0.84101563 7.08625 -1.3125 8 C-3.9956429 13.58242787 -5.20748815 18.88464735 -6 25 C-6.33 25 -6.66 25 -7 25 C-7.20465296 19.7813494 -7.16128993 15.83111866 -5 11 C-4.6186926 8.67402489 -4.27539746 6.34087842 -4 4 C-3.01 4 -2.02 4 -1 4 C-0.67 2.68 -0.34 1.36 0 0 Z " fill="#7B448F" transform="translate(208,162)"/>
<path d="M0 0 C-0.33 1.32 -0.66 2.64 -1 4 C-9.415 4.495 -9.415 4.495 -18 5 C-15.37443155 3.24962103 -14.0625129 2.61758567 -11.125 1.9375 C-10.42375 1.77378906 -9.7225 1.61007813 -9 1.44140625 C-2.46902655 0 -2.46902655 0 0 0 Z " fill="#E06C69" transform="translate(298,152)"/>
<path d="M0 0 C0 3 0 3 -1.8125 5.6875 C-6.07462801 12.14157956 -7.48592556 18.34206345 -8 26 C-8.33 26 -8.66 26 -9 26 C-9.6122869 14.93348119 -6.99057751 8.50633379 0 0 Z " fill="#645B9B" transform="translate(198,168)"/>
<path d="M0 0 C0.99 0.33 1.98 0.66 3 1 C0.38521048 3.56761548 -0.94528576 3.9956345 -4.671875 4.29296875 C-6.03156035 4.27316751 -7.3910934 4.23759202 -8.75 4.1875 C-9.44738281 4.17396484 -10.14476562 4.16042969 -10.86328125 4.14648438 C-12.57585541 4.1112945 -14.28802941 4.05749155 -16 4 C-16.33 3.34 -16.66 2.68 -17 2 C-15.85660156 1.93941406 -14.71320313 1.87882813 -13.53515625 1.81640625 C-12.04425695 1.73201572 -10.55337225 1.64736698 -9.0625 1.5625 C-8.30775391 1.52318359 -7.55300781 1.48386719 -6.77539062 1.44335938 C-3.08055813 1.55961976 -3.08055813 1.55961976 0 0 Z " fill="#E17D77" transform="translate(298,164)"/>
<path d="M0 0 C0.721875 0.165 1.44375 0.33 2.1875 0.5 C2.1875 2.15 2.1875 3.8 2.1875 5.5 C-2.7625 6.985 -2.7625 6.985 -7.8125 8.5 C-3.50480769 0.62307692 -3.50480769 0.62307692 0 0 Z " fill="#E56869" transform="translate(269.8125,122.5)"/>
<path d="M0 0 C1.27875 -0.061875 2.5575 -0.12375 3.875 -0.1875 C4.95394531 -0.23970703 4.95394531 -0.23970703 6.0546875 -0.29296875 C6.69664062 -0.19628906 7.33859375 -0.09960938 8 0 C8.66 0.99 9.32 1.98 10 3 C7.03 2.505 7.03 2.505 4 2 C4.33 3.65 4.66 5.3 5 7 C0.25 6.25 0.25 6.25 -2 4 C-1.01 3.34 -0.02 2.68 1 2 C0.67 1.34 0.34 0.68 0 0 Z " fill="#B0A59B" transform="translate(232,205)"/>
<path d="M0 0 C5.45479185 0.56820748 9.91059256 1.94637945 15 4 C15 4.66 15 5.32 15 6 C13.58194169 5.71517632 12.16559621 5.42181856 10.75 5.125 C9.96109375 4.96257812 9.1721875 4.80015625 8.359375 4.6328125 C6.03168856 4.00849925 4.10968048 3.15161458 2 2 C2 3.32 2 4.64 2 6 C0.35 6 -1.3 6 -3 6 C-1.68 5.67 -0.36 5.34 1 5 C0.67 3.35 0.34 1.7 0 0 Z " fill="#C2867D" transform="translate(236,207)"/>
<path d="M0 0 C5 5 10 10 15 15 C14.01 15.33 13.02 15.66 12 16 C12 15.34 12 14.68 12 14 C11.01 13.67 10.02 13.34 9 13 C9 12.34 9 11.68 9 11 C8.34 11 7.68 11 7 11 C7 10.34 7 9.68 7 9 C6.34 9 5.68 9 5 9 C3.4921875 7.46875 3.4921875 7.46875 1.875 5.5 C1.33617187 4.8503125 0.79734375 4.200625 0.2421875 3.53125 C-0.16773438 3.0259375 -0.57765625 2.520625 -1 2 C-0.67 1.34 -0.34 0.68 0 0 Z " fill="#807B99" transform="translate(217,140)"/>
<path d="M0 0 C0.99 0.99 1.98 1.98 3 3 C1.58829091 4.29708314 0.17041804 5.58745978 -1.25 6.875 C-2.03890625 7.59429687 -2.8278125 8.31359375 -3.640625 9.0546875 C-5.72026168 10.76935483 -7.54419267 11.92980873 -10 13 C-9 10 -9 10 -6.6875 8.1875 C-3.71530734 5.76827341 -1.99400271 3.24948589 0 0 Z " fill="#D77D7C" transform="translate(258,137)"/>
<path d="M0 0 C1.32 0.33 2.64 0.66 4 1 C3.835 1.94875 3.67 2.8975 3.5 3.875 C2.9473365 6.80168901 2.9473365 6.80168901 3 9 C2.01 9.33 1.02 9.66 0 10 C-2 7 -2 7 -1.6875 4.4375 C-1 2 -1 2 0 0 Z " fill="#B89493" transform="translate(180,133)"/>
<path d="M0 0 C-2.31 3.63 -4.62 7.26 -7 11 C-8 8 -8 8 -7 5 C-6.34 5 -5.68 5 -5 5 C-5 3.68 -5 2.36 -5 1 C-5.99 0.67 -6.98 0.34 -8 0 C-4.63458162 -1.08174162 -3.70152678 -0.92538169 0 0 Z " fill="#D7726F" transform="translate(324,109)"/>
<path d="M0 0 C7.37653219 0.75015582 14.67831776 1.83441535 22 3 C22 3.33 22 3.66 22 4 C20.01432292 4.22786458 18.02864583 4.45572917 16.04296875 4.68359375 C13.80603607 4.97170735 13.80603607 4.97170735 11 6 C11 5.01 11 4.02 11 3 C9.01432292 2.8046875 7.02864583 2.609375 5.04296875 2.4140625 C3 2 3 2 0 0 Z " fill="#933174" transform="translate(226,214)"/>
<path d="M0 0 C0.33 0.99 0.66 1.98 1 3 C-1.60412629 7.79159238 -4.76320505 10.72611299 -9 14 C-8.67 12.68 -8.34 11.36 -8 10 C-7.34 10 -6.68 10 -6 10 C-5.67 8.35 -5.34 6.7 -5 5 C-4.34 5 -3.68 5 -3 5 C-2.67 4.34 -2.34 3.68 -2 3 C-1.34 2.01 -0.68 1.02 0 0 Z " fill="#89AFCA" transform="translate(206,155)"/>
<path d="M0 0 C0.66 0 1.32 0 2 0 C2.3125 3.25 2.3125 3.25 2 7 C-0.5 9.4375 -0.5 9.4375 -3 11 C-2.835 10.4225 -2.67 9.845 -2.5 9.25 C-1.85537969 6.73335631 -1.85537969 6.73335631 -2 3 C-1.34 2.01 -0.68 1.02 0 0 Z " fill="#A78F8B" transform="translate(253,257)"/>
<path d="M0 0 C4 4.625 4 4.625 4 8 C4.63514826 10.34210921 5.2986716 12.67684969 6 15 C2.91620904 12.22458814 1.14588471 10.01059647 0 6 C-0.125 2.6875 -0.125 2.6875 0 0 Z " fill="#87638D" transform="translate(190,193)"/>
<path d="M0 0 C2 0.33333333 4 0.66666667 6 1 C6.33 2.32 6.66 3.64 7 5 C6.27554688 4.79503906 5.55109375 4.59007813 4.8046875 4.37890625 C-0.10960129 3.00945777 -4.93341513 1.68467363 -10 1 C-6.37670267 -1.36907903 -4.1322454 -0.90909399 0 0 Z " fill="#6167B6" transform="translate(192,122)"/>
<path d="M0 0 C2.31 0 4.62 0 7 0 C7.33 0.66 7.66 1.32 8 2 C7.0625 4.125 7.0625 4.125 6 6 C4.68 6 3.36 6 2 6 C1.34 4.02 0.68 2.04 0 0 Z " fill="#BF9B8D" transform="translate(177,160)"/>
<path d="M0 0 C0.66 0.33 1.32 0.66 2 1 C1.525625 1.37125 1.05125 1.7425 0.5625 2.125 C-1.52205802 4.62646962 -1.64621491 6.81593418 -2 10 C-5.4375 9.1875 -5.4375 9.1875 -9 8 C-9.33 7.01 -9.66 6.02 -10 5 C-9.34 4.34 -8.68 3.68 -8 3 C-8 4.32 -8 5.64 -8 7 C-6.68 7 -5.36 7 -4 7 C-3.71125 6.21625 -3.4225 5.4325 -3.125 4.625 C-2 2 -2 2 0 0 Z " fill="#6D6DA8" transform="translate(178,131)"/>
<path d="M0 0 C0.33 0.66 0.66 1.32 1 2 C3.02463255 2.65213292 3.02463255 2.65213292 5 3 C4.67 3.66 4.34 4.32 4 5 C5.98 5 7.96 5 10 5 C10 5.99 10 6.98 10 8 C9.01 8.33 8.02 8.66 7 9 C5.2925002 7.71937515 3.62626404 6.38232443 2 5 C1.01 4.67 0.02 4.34 -1 4 C-0.67 2.68 -0.34 1.36 0 0 Z " fill="#C99182" transform="translate(166,148)"/>
<path d="M0 0 C1.79133978 -0.05391993 3.58313899 -0.09275571 5.375 -0.125 C6.37273437 -0.14820313 7.37046875 -0.17140625 8.3984375 -0.1953125 C11 0 11 0 13 2 C12.030625 2.28875 11.06125 2.5775 10.0625 2.875 C6.89335797 3.64214682 6.89335797 3.64214682 6 6 C5.34 6 4.68 6 4 6 C4.33 4.68 4.66 3.36 5 2 C3.35 1.67 1.7 1.34 0 1 C0 0.67 0 0.34 0 0 Z " fill="#9EA8AD" transform="translate(186,132)"/>
<path d="M0 0 C0 0.66 0 1.32 0 2 C-3.96 2 -7.92 2 -12 2 C-12.33 1.34 -12.66 0.68 -13 0 C-4.57142857 -1.28571429 -4.57142857 -1.28571429 0 0 Z " fill="#D7856A" transform="translate(231,210)"/>
<path d="M0 0 C0 3 0 3 -1.875 5.125 C-5.33829879 8.18085187 -7.45628869 8.09877633 -12 8 C-10.60307672 5.20615345 -8.56793257 4.91757157 -5.7890625 3.796875 C-3.59949046 2.8216071 -1.83069032 1.53777987 0 0 Z " fill="#AE928F" transform="translate(265,270)"/>
<path d="M0 0 C5.61 0.33 11.22 0.66 17 1 C17 1.33 17 1.66 17 2 C14.9190156 2.24959784 12.83499188 2.47394907 10.75 2.6875 C9.58984375 2.81511719 8.4296875 2.94273437 7.234375 3.07421875 C4 3 4 3 0 0 Z " fill="#B58C92" transform="translate(209,208)"/>
<path d="M0 0 C3.37462715 0.54723683 5.08235 1.0549 8 3 C8 3.66 8 4.32 8 5 C6.25 5.75 6.25 5.75 4 6 C1.75 4.1875 1.75 4.1875 0 2 C0 1.34 0 0.68 0 0 Z " fill="#D07968" transform="translate(249,204)"/>
<path d="M0 0 C0.33 0 0.66 0 1 0 C1.08133791 1.91595968 1.13934367 3.83291932 1.1875 5.75 C1.22230469 6.81734375 1.25710937 7.8846875 1.29296875 8.984375 C0.97082786 12.30027855 0.22851086 13.59016673 -2 16 C-2.2396943 10.36718401 -1.38529821 5.45461169 0 0 Z " fill="#7EC5CC" transform="translate(206,143)"/>
<path d="M0 0 C2.64 0 5.28 0 8 0 C7.34 1.32 6.68 2.64 6 4 C3.69 3.67 1.38 3.34 -1 3 C-0.67 2.01 -0.34 1.02 0 0 Z " fill="#E2736D" transform="translate(312,136)"/>
<path d="M0 0 C-1.36983503 3.16115776 -1.9890638 3.9927092 -5 6 C-8.1875 6.125 -8.1875 6.125 -11 6 C-3.28571429 0 -3.28571429 0 0 0 Z " fill="#73819D" transform="translate(246,267)"/>
<path d="M0 0 C1.48117801 0.28127421 2.95993249 0.57533732 4.4375 0.875 C5.67306641 1.11863281 5.67306641 1.11863281 6.93359375 1.3671875 C7.61550781 1.57601562 8.29742187 1.78484375 9 2 C9.33 2.66 9.66 3.32 10 4 C6.7 4.33 3.4 4.66 0 5 C-0.33 4.01 -0.66 3.02 -1 2 C-0.67 1.34 -0.34 0.68 0 0 Z " fill="#AB4F6F" transform="translate(218,217)"/>
<path d="M0 0 C-1.42131103 2.84262206 -3.18671989 3.59335994 -6 5 C-8.8125 5.1875 -8.8125 5.1875 -11 5 C-11 4.34 -11 3.68 -11 3 C-9.73160474 2.49384702 -8.46016898 1.99530901 -7.1875 1.5 C-6.12595703 1.08234375 -6.12595703 1.08234375 -5.04296875 0.65625 C-3 0 -3 0 0 0 Z " fill="#9AAEAC" transform="translate(219,181)"/>
<path d="M0 0 C1.15957207 3.47871621 0.77456651 4.34219645 -0.4375 7.6875 C-0.72496094 8.49574219 -1.01242188 9.30398437 -1.30859375 10.13671875 C-1.53675781 10.75160156 -1.76492187 11.36648437 -2 12 C-2.99 11.67 -3.98 11.34 -5 11 C-4.32902328 6.80639551 -2.1441606 3.59665648 0 0 Z " fill="#97B4AE" transform="translate(190,174)"/>
<path d="M0 0 C0.33 0.66 0.66 1.32 1 2 C1.66 2.33 2.32 2.66 3 3 C1.02 3 -0.96 3 -3 3 C-3 3.66 -3 4.32 -3 5 C-5.31 5 -7.62 5 -10 5 C-10 4.34 -10 3.68 -10 3 C-6.52674819 1.8422494 -3.63932552 1.93133348 0 2 C0 1.34 0 0.68 0 0 Z " fill="#3E6DCE" transform="translate(189,124)"/>
<path d="M0 0 C0.33 0 0.66 0 1 0 C1.36923077 5.53846154 1.36923077 5.53846154 -0.5 7.875 C-1.2425 8.431875 -1.2425 8.431875 -2 9 C-2.66 8.67 -3.32 8.34 -4 8 C-3.67 7.67 -3.34 7.34 -3 7 C-3.99 6.34 -4.98 5.68 -6 5 C-5.38125 4.731875 -4.7625 4.46375 -4.125 4.1875 C-1.7004767 3.04443152 -1.7004767 3.04443152 0 0 Z " fill="#898A9C" transform="translate(265,264)"/>
<path d="M0 0 C0.33 0.99 0.66 1.98 1 3 C2.32 3.66 3.64 4.32 5 5 C0.71 5 -3.58 5 -8 5 C-8 4.67 -8 4.34 -8 4 C-6.576875 3.566875 -6.576875 3.566875 -5.125 3.125 C-1.94788422 2.23174891 -1.94788422 2.23174891 0 0 Z " fill="#B1AA9A" transform="translate(225,204)"/>
<path d="M0 0 C0.33 0.66 0.66 1.32 1 2 C1.66 2 2.32 2 3 2 C3.53012738 3.28788008 4.0488329 4.58046678 4.5625 5.875 C4.99755859 6.95394531 4.99755859 6.95394531 5.44140625 8.0546875 C6 10 6 10 5 12 C2.03162219 7.97832683 0.47610659 4.99911924 0 0 Z " fill="#9EA9BB" transform="translate(195,190)"/>
<path d="M0 0 C2.31 0.33 4.62 0.66 7 1 C6 4 6 4 3.5625 5.75 C2.2940625 6.36875 2.2940625 6.36875 1 7 C0.34 6.67 -0.32 6.34 -1 6 C0.32 4.68 1.64 3.36 3 2 C2.01 2.33 1.02 2.66 0 3 C0 2.01 0 1.02 0 0 Z " fill="#76598D" transform="translate(221,133)"/>
<path d="M0 0 C0.721875 0.103125 1.44375 0.20625 2.1875 0.3125 C1.259375 0.7146875 1.259375 0.7146875 0.3125 1.125 C-2.1120233 2.26806848 -2.1120233 2.26806848 -3.8125 5.3125 C-4.4725 5.3125 -5.1325 5.3125 -5.8125 5.3125 C-6.10125 5.951875 -6.39 6.59125 -6.6875 7.25 C-7.8125 9.3125 -7.8125 9.3125 -9.8125 10.3125 C-8.22343411 5.25638126 -5.63322205 0.62591356 0 0 Z " fill="#6171AB" transform="translate(179.8125,122.6875)"/>
<path d="M0 0 C0 0.99 0 1.98 0 3 C-2.5 5.1875 -2.5 5.1875 -5 7 C-5.33 6.01 -5.66 5.02 -6 4 C-4 1 -4 1 -1.875 0.3125 C-1.25625 0.209375 -0.6375 0.10625 0 0 Z " fill="#BB5A67" transform="translate(283,266)"/>
<path d="M0 0 C5.75 -0.125 5.75 -0.125 8 1 C8 1.66 8 2.32 8 3 C6.35 2.67 4.7 2.34 3 2 C3.66 3.32 4.32 4.64 5 6 C4.01 5.67 3.02 5.34 2 5 C0.8125 2.4375 0.8125 2.4375 0 0 Z " fill="#C08F86" transform="translate(246,202)"/>
<path d="M0 0 C0.7425 0.185625 1.485 0.37125 2.25 0.5625 C4.94990963 0.99203108 6.44631077 0.85122974 9 0 C9.33 0.66 9.66 1.32 10 2 C9.360625 2.12375 8.72125 2.2475 8.0625 2.375 C7.381875 2.58125 6.70125 2.7875 6 3 C5.67 3.66 5.34 4.32 5 5 C2 4 2 4 0.8125 1.9375 C0.544375 1.298125 0.27625 0.65875 0 0 Z " fill="#B59B98" transform="translate(240,189)"/>
<path d="M0 0 C0.33 0.66 0.66 1.32 1 2 C1.66 2.33 2.32 2.66 3 3 C0.47524538 4.26237731 -1.31200466 4.09856404 -4.125 4.0625 C-5.03507813 4.05347656 -5.94515625 4.04445312 -6.8828125 4.03515625 C-7.58148438 4.02355469 -8.28015625 4.01195312 -9 4 C-6.3144406 1.3144406 -3.62378672 0.93950026 0 0 Z " fill="#CA7B75" transform="translate(157,145)"/>
<path d="M0 0 C3.60654039 2.40436026 3.85452932 3.94679607 5 8 C3.35 7.67 1.7 7.34 0 7 C0 4.69 0 2.38 0 0 Z " fill="#87BBBB" transform="translate(200,135)"/>
<path d="M0 0 C4.75 0.875 4.75 0.875 7 2 C7 2.99 7 3.98 7 5 C4.69 4.34 2.38 3.68 0 3 C0 2.01 0 1.02 0 0 Z " fill="#7263A4" transform="translate(198,123)"/>
<path d="M0 0 C1.32 0 2.64 0 4 0 C4.33 0.99 4.66 1.98 5 3 C5.66 3.66 6.32 4.32 7 5 C3.37 4.34 -0.26 3.68 -4 3 C-2.68 2.67 -1.36 2.34 0 2 C0 1.34 0 0.68 0 0 Z " fill="#B15767" transform="translate(240,223)"/>
<path d="M0 0 C1.4783226 2.95664519 1.06032783 5.74229737 1 9 C-1.64 8.34 -4.28 7.68 -7 7 C-7 6.34 -7 5.68 -7 5 C-5.02 5.66 -3.04 6.32 -1 7 C-1.020625 6.030625 -1.04125 5.06125 -1.0625 4.0625 C-1 1 -1 1 0 0 Z " fill="#A482A0" transform="translate(177,134)"/>
<path d="M0 0 C0.33 0.99 0.66 1.98 1 3 C0.34 3 -0.32 3 -1 3 C-1.33 4.98 -1.66 6.96 -2 9 C-2.66 9 -3.32 9 -4 9 C-4.33 7.02 -4.66 5.04 -5 3 C-3.35 2.67 -1.7 2.34 0 2 C0 1.34 0 0.68 0 0 Z " fill="#EF6F69" transform="translate(318,111)"/>
<path d="M0 0 C-1.28062485 1.7074998 -2.61767557 3.37373596 -4 5 C-4.66 5 -5.32 5 -6 5 C-6.33 3.35 -6.66 1.7 -7 0 C-3.86650268 -1.04449911 -3.01031744 -0.93423645 0 0 Z " fill="#E15C5D" transform="translate(326,85)"/>
<path d="M0 0 C1.98 0 3.96 0 6 0 C4.00045871 2.99931194 3.26204729 3.81380099 0 5 C-0.99 4.67 -1.98 4.34 -3 4 C-2.01 3.67 -1.02 3.34 0 3 C0 2.01 0 1.02 0 0 Z " fill="#6682B1" transform="translate(257,270)"/>
<path d="M0 0 C2.96404505 2.80804268 5.44499019 5.18315774 7 9 C5 9 5 9 2.375 6.75 C0 4 0 4 0 0 Z " fill="#9E426B" transform="translate(267,213)"/>
<path d="M0 0 C3.3 0 6.6 0 10 0 C10 0.66 10 1.32 10 2 C6.37 2.33 2.74 2.66 -1 3 C-0.67 2.01 -0.34 1.02 0 0 Z " fill="#AD8E87" transform="translate(277,198)"/>
<path d="M0 0 C0.99 0 1.98 0 3 0 C4.76462683 3.08809695 5 4.23312136 5 8 C4.34 8 3.68 8 3 8 C1.58622659 5.36095629 0.62759865 2.92879371 0 0 Z " fill="#A8798A" transform="translate(213,147)"/>
<path d="M0 0 C2.31 1.98 4.62 3.96 7 6 C5.68 6.33 4.36 6.66 3 7 C0 2.25 0 2.25 0 0 Z " fill="#754487" transform="translate(198,200)"/>
<path d="M0 0 C1.65 0 3.3 0 5 0 C5.66 1.65 6.32 3.3 7 5 C4.69 4.34 2.38 3.68 0 3 C0 2.01 0 1.02 0 0 Z " fill="#BB9392" transform="translate(246,191)"/>
<path d="M0 0 C4.75 0.75 4.75 0.75 7 3 C2.545 3.495 2.545 3.495 -2 4 C-1.34 2.68 -0.68 1.36 0 0 Z " fill="#D96764" transform="translate(299,152)"/>
<path d="M0 0 C0.99 0.33 1.98 0.66 3 1 C4.1875 3.5625 4.1875 3.5625 5 6 C3.35 5.67 1.7 5.34 0 5 C0 3.35 0 1.7 0 0 Z " fill="#8780B1" transform="translate(213,139)"/>
<path d="M0 0 C0.66 0.33 1.32 0.66 2 1 C1.67 3.64 1.34 6.28 1 9 C-0.32 9.33 -1.64 9.66 -3 10 C-2.01 6.7 -1.02 3.4 0 0 Z " fill="#A85165" transform="translate(277,265)"/>
<path d="M0 0 C1.32 0 2.64 0 4 0 C4.66 1.65 5.32 3.3 6 5 C4.125 4.75 4.125 4.75 2 4 C0.75 1.9375 0.75 1.9375 0 0 Z " fill="#A2ABAA" transform="translate(242,204)"/>
<path d="M0 0 C2.02045442 0.60183749 4.02111039 1.27306096 6 2 C6.33 2.66 6.66 3.32 7 4 C3.7 3.67 0.4 3.34 -3 3 C-2.01 2.67 -1.02 2.34 0 2 C0 1.34 0 0.68 0 0 Z " fill="#BE807F" transform="translate(291,184)"/>
<path d="M0 0 C7.75 0.875 7.75 0.875 10 2 C10 2.66 10 3.32 10 4 C5.78087253 3.5205537 3.20336822 2.83374881 0 0 Z " fill="#CE6A67" transform="translate(299,168)"/>
<path d="M0 0 C0.33 0 0.66 0 1 0 C1.125 5.75 1.125 5.75 0 8 C-0.66 8 -1.32 8 -2 8 C-2 6.02 -2 4.04 -2 2 C-1.34 2 -0.68 2 0 2 C0 1.34 0 0.68 0 0 Z " fill="#8DBABA" transform="translate(203,152)"/>
<path d="M0 0 C-0.33 1.32 -0.66 2.64 -1 4 C-3.97 3.67 -6.94 3.34 -10 3 C-6.64781163 0.76520776 -4.01177204 0 0 0 Z " fill="#E8726C" transform="translate(298,152)"/>
<path d="M0 0 C-3.51187196 2.40814077 -5.72656908 3.36629408 -10 3 C-4.37755102 -1.45918367 -4.37755102 -1.45918367 0 0 Z " fill="#D26A6F" transform="translate(159,139)"/>
<path d="M0 0 C2.31 0 4.62 0 7 0 C6.67 0.99 6.34 1.98 6 3 C3.03 2.505 3.03 2.505 0 2 C0 1.34 0 0.68 0 0 Z " fill="#802F8A" transform="translate(215,213)"/>
<path d="M0 0 C6.75 0.75 6.75 0.75 9 3 C7.3125 3.75 7.3125 3.75 5 4 C2.25 2.0625 2.25 2.0625 0 0 Z " fill="#7E3B7C" transform="translate(202,207)"/>
<path d="M0 0 C1.98 0.66 3.96 1.32 6 2 C6.33 3.65 6.66 5.3 7 7 C5.82780457 6.21654285 4.66236332 5.42297164 3.5 4.625 C2.8503125 4.18414062 2.200625 3.74328125 1.53125 3.2890625 C1.0259375 2.86367187 0.520625 2.43828125 0 2 C0 1.34 0 0.68 0 0 Z " fill="#AF9794" transform="translate(239,197)"/>
<path d="M0 0 C2.97 0.495 2.97 0.495 6 1 C6.33 1.99 6.66 2.98 7 4 C4.61435923 3.42415568 2.33317216 2.77772405 0 2 C0 1.34 0 0.68 0 0 Z " fill="#D36C6E" transform="translate(284,182)"/>
<path d="M0 0 C1.98 0.495 1.98 0.495 4 1 C2.68 3.31 1.36 5.62 0 8 C-1.09658936 4.71023192 -0.79953138 3.28696233 0 0 Z " fill="#9AA8BF" transform="translate(191,172)"/>
<path d="M0 0 C0 0.99 0 1.98 0 3 C-3 5.1875 -3 5.1875 -6 7 C-6.33 6.34 -6.66 5.68 -7 5 C-6.34 5 -5.68 5 -5 5 C-5 4.01 -5 3.02 -5 2 C-3.35 1.34 -1.7 0.68 0 0 Z " fill="#9F7291" transform="translate(225,170)"/>
<path d="M0 0 C0.33 0.66 0.66 1.32 1 2 C0.0625 4.125 0.0625 4.125 -1 6 C-1.66 6 -2.32 6 -3 6 C-3 6.66 -3 7.32 -3 8 C-3.66 8 -4.32 8 -5 8 C-4.45773019 4.20411134 -2.79872437 2.52788007 0 0 Z " fill="#B67C8A" transform="translate(231,164)"/>
<path d="M0 0 C3.96 1.98 3.96 1.98 8 4 C8 4.33 8 4.66 8 5 C6.35 5 4.7 5 3 5 C2.67 4.01 2.34 3.02 2 2 C1.34 2 0.68 2 0 2 C0 1.34 0 0.68 0 0 Z " fill="#614EB0" transform="translate(213,134)"/>
<path d="M0 0 C0.33 0 0.66 0 1 0 C1 1.65 1 3.3 1 5 C-0.98 5.66 -2.96 6.32 -5 7 C-4.34 5.68 -3.68 4.36 -3 3 C-2.34 3 -1.68 3 -1 3 C-0.67 2.01 -0.34 1.02 0 0 Z " fill="#E07577" transform="translate(271,123)"/>
</svg>
